<svg width="296" height="136" viewBox="0 0 296 136" fill="none" xmlns="http://www.w3.org/2000/svg">
<g clip-path="url(#clip0_211_12698)">
<path d="M18.6169 134.99C18.5315 134.99 18.4329 134.985 18.3209 134.974C18.2142 134.969 18.1049 134.953 17.9929 134.926V134.374C18.0942 134.396 18.1875 134.412 18.2729 134.422C18.3635 134.438 18.4435 134.446 18.5129 134.446C18.7582 134.446 18.9422 134.369 19.0649 134.214C19.1875 134.065 19.2489 133.825 19.2489 133.494V127.862H19.9129V133.502C19.9129 133.822 19.8649 134.094 19.7689 134.318C19.6782 134.542 19.5369 134.71 19.3449 134.822C19.1582 134.934 18.9155 134.99 18.6169 134.99ZM22.7777 133.574C22.4203 133.574 22.1083 133.492 21.8417 133.326C21.575 133.156 21.367 132.916 21.2177 132.606C21.0737 132.297 21.0017 131.926 21.0017 131.494C21.0017 131.057 21.0737 130.684 21.2177 130.374C21.367 130.065 21.575 129.828 21.8417 129.662C22.1083 129.497 22.4203 129.414 22.7777 129.414C23.1403 129.414 23.4523 129.508 23.7137 129.694C23.9803 129.876 24.1563 130.124 24.2417 130.438H24.1457L24.2337 129.486H24.8577C24.8417 129.641 24.8257 129.798 24.8097 129.958C24.799 130.113 24.7937 130.265 24.7937 130.414V133.502H24.1457V132.558H24.2337C24.1483 132.873 23.9723 133.121 23.7057 133.302C23.439 133.484 23.1297 133.574 22.7777 133.574ZM22.9057 133.046C23.2897 133.046 23.5937 132.916 23.8177 132.654C24.0417 132.388 24.1537 132.001 24.1537 131.494C24.1537 130.982 24.0417 130.596 23.8177 130.334C23.5937 130.068 23.2897 129.934 22.9057 129.934C22.527 129.934 22.223 130.068 21.9937 130.334C21.7697 130.596 21.6577 130.982 21.6577 131.494C21.6577 132.001 21.7697 132.388 21.9937 132.654C22.223 132.916 22.527 133.046 22.9057 133.046ZM26.0466 133.502V130.414C26.0466 130.265 26.0386 130.113 26.0226 129.958C26.0119 129.798 25.9986 129.641 25.9826 129.486H26.6066L26.6866 130.366H26.5906C26.7079 130.057 26.8946 129.822 27.1506 129.662C27.4119 129.497 27.7132 129.414 28.0546 129.414C28.5292 129.414 28.8866 129.542 29.1266 129.798C29.3719 130.049 29.4946 130.446 29.4946 130.99V133.502H28.8466V131.03C28.8466 130.652 28.7692 130.377 28.6146 130.206C28.4652 130.03 28.2306 129.942 27.9106 129.942C27.5372 129.942 27.2412 130.057 27.0226 130.286C26.8039 130.516 26.6946 130.822 26.6946 131.206V133.502H26.0466Z" fill="black" fill-opacity="0.87"/>
<path d="M40.9174 133.502V127.862H44.4374V128.406H41.5814V130.382H44.2614V130.926H41.5814V133.502H40.9174ZM46.9731 133.574C46.3438 133.574 45.8478 133.393 45.4851 133.03C45.1225 132.662 44.9411 132.153 44.9411 131.502C44.9411 131.081 45.0211 130.716 45.1811 130.406C45.3411 130.092 45.5651 129.849 45.8531 129.678C46.1411 129.502 46.4718 129.414 46.8451 129.414C47.2131 129.414 47.5225 129.492 47.7731 129.646C48.0238 129.801 48.2158 130.022 48.3491 130.31C48.4825 130.593 48.5491 130.929 48.5491 131.318V131.558H45.4371V131.15H48.1251L47.9891 131.254C47.9891 130.828 47.8931 130.494 47.7011 130.254C47.5091 130.014 47.2238 129.894 46.8451 129.894C46.4451 129.894 46.1331 130.036 45.9091 130.318C45.6851 130.596 45.5731 130.972 45.5731 131.446V131.518C45.5731 132.02 45.6958 132.401 45.9411 132.662C46.1918 132.918 46.5411 133.046 46.9891 133.046C47.2291 133.046 47.4531 133.012 47.6611 132.942C47.8745 132.868 48.0771 132.748 48.2691 132.582L48.4931 133.038C48.3171 133.209 48.0931 133.342 47.8211 133.438C47.5545 133.529 47.2718 133.574 46.9731 133.574ZM51.5567 133.574C51.194 133.574 50.882 133.484 50.6207 133.302C50.3594 133.116 50.1834 132.862 50.0927 132.542H50.1807V133.502H49.5407V127.614H50.1887V130.422H50.0927C50.1834 130.113 50.3594 129.868 50.6207 129.686C50.882 129.505 51.194 129.414 51.5567 129.414C51.9194 129.414 52.2314 129.5 52.4927 129.67C52.7594 129.836 52.9647 130.073 53.1087 130.382C53.258 130.692 53.3327 131.062 53.3327 131.494C53.3327 131.926 53.258 132.297 53.1087 132.606C52.9594 132.916 52.7514 133.156 52.4847 133.326C52.2234 133.492 51.914 133.574 51.5567 133.574ZM51.4207 133.046C51.7994 133.046 52.1034 132.916 52.3327 132.654C52.562 132.393 52.6767 132.006 52.6767 131.494C52.6767 130.982 52.562 130.596 52.3327 130.334C52.1034 130.068 51.7994 129.934 51.4207 129.934C51.042 129.934 50.738 130.068 50.5087 130.334C50.2847 130.596 50.1727 130.982 50.1727 131.494C50.1727 132.001 50.2847 132.388 50.5087 132.654C50.738 132.916 51.042 133.046 51.4207 133.046Z" fill="black" fill-opacity="0.87"/>
<path d="M64.4503 133.502V127.862H65.0263L67.2903 132.974H67.0583L69.3223 127.862H69.8983V133.502H69.2903V128.718H69.5303L67.3943 133.502H66.9543L64.8103 128.718H65.0503V133.502H64.4503ZM72.7655 133.574C72.4081 133.574 72.0961 133.492 71.8295 133.326C71.5628 133.156 71.3548 132.916 71.2055 132.606C71.0615 132.297 70.9895 131.926 70.9895 131.494C70.9895 131.057 71.0615 130.684 71.2055 130.374C71.3548 130.065 71.5628 129.828 71.8295 129.662C72.0961 129.497 72.4081 129.414 72.7655 129.414C73.1281 129.414 73.4401 129.508 73.7015 129.694C73.9681 129.876 74.1441 130.124 74.2295 130.438H74.1335L74.2215 129.486H74.8455C74.8295 129.641 74.8135 129.798 74.7975 129.958C74.7868 130.113 74.7815 130.265 74.7815 130.414V133.502H74.1335V132.558H74.2215C74.1361 132.873 73.9601 133.121 73.6935 133.302C73.4268 133.484 73.1175 133.574 72.7655 133.574ZM72.8935 133.046C73.2775 133.046 73.5815 132.916 73.8055 132.654C74.0295 132.388 74.1415 132.001 74.1415 131.494C74.1415 130.982 74.0295 130.596 73.8055 130.334C73.5815 130.068 73.2775 129.934 72.8935 129.934C72.5148 129.934 72.2108 130.068 71.9815 130.334C71.7575 130.596 71.6455 130.982 71.6455 131.494C71.6455 132.001 71.7575 132.388 71.9815 132.654C72.2108 132.916 72.5148 133.046 72.8935 133.046ZM76.0183 133.502V130.454C76.0183 130.294 76.013 130.132 76.0023 129.966C75.997 129.801 75.9863 129.641 75.9703 129.486H76.5943L76.6743 130.462L76.5623 130.47C76.6157 130.23 76.709 130.033 76.8423 129.878C76.9757 129.724 77.133 129.609 77.3143 129.534C77.4957 129.454 77.685 129.414 77.8823 129.414C77.9623 129.414 78.0317 129.417 78.0903 129.422C78.1543 129.428 78.213 129.441 78.2663 129.462L78.2583 130.038C78.1783 130.012 78.1037 129.996 78.0343 129.99C77.9703 129.98 77.8957 129.974 77.8103 129.974C77.5757 129.974 77.3703 130.03 77.1943 130.142C77.0237 130.254 76.893 130.398 76.8023 130.574C76.717 130.75 76.6743 130.937 76.6743 131.134V133.502H76.0183Z" fill="black" fill-opacity="0.87"/>
<path d="M88.4702 133.502L90.9582 127.862H91.5342L94.0622 133.502H93.3742L92.6702 131.894L92.9662 132.062H89.5182L89.8382 131.894L89.1502 133.502H88.4702ZM91.2382 128.622L89.9422 131.662L89.7502 131.518H92.7262L92.5822 131.662L91.2542 128.622H91.2382ZM94.841 135.23V130.414C94.841 130.265 94.833 130.113 94.817 129.958C94.8063 129.798 94.793 129.641 94.777 129.486H95.401L95.489 130.438H95.393C95.4783 130.124 95.6517 129.876 95.913 129.694C96.1743 129.508 96.4863 129.414 96.849 129.414C97.2117 129.414 97.5237 129.497 97.785 129.662C98.0517 129.828 98.2597 130.065 98.409 130.374C98.5583 130.684 98.633 131.057 98.633 131.494C98.633 131.926 98.5583 132.297 98.409 132.606C98.265 132.916 98.0597 133.156 97.793 133.326C97.5263 133.492 97.2117 133.574 96.849 133.574C96.4917 133.574 96.1823 133.484 95.921 133.302C95.6597 133.121 95.4863 132.873 95.401 132.558H95.489V135.23H94.841ZM96.721 133.046C97.105 133.046 97.409 132.916 97.633 132.654C97.8623 132.388 97.977 132.001 97.977 131.494C97.977 130.982 97.8623 130.596 97.633 130.334C97.409 130.068 97.105 129.934 96.721 129.934C96.3423 129.934 96.0383 130.068 95.809 130.334C95.585 130.596 95.473 130.982 95.473 131.494C95.473 132.001 95.585 132.388 95.809 132.654C96.0383 132.916 96.3423 133.046 96.721 133.046ZM99.6219 133.502V130.454C99.6219 130.294 99.6165 130.132 99.6059 129.966C99.6005 129.801 99.5899 129.641 99.5739 129.486H100.198L100.278 130.462L100.166 130.47C100.219 130.23 100.313 130.033 100.446 129.878C100.579 129.724 100.737 129.609 100.918 129.534C101.099 129.454 101.289 129.414 101.486 129.414C101.566 129.414 101.635 129.417 101.694 129.422C101.758 129.428 101.817 129.441 101.87 129.462L101.862 130.038C101.782 130.012 101.707 129.996 101.638 129.99C101.574 129.98 101.499 129.974 101.414 129.974C101.179 129.974 100.974 130.03 100.798 130.142C100.627 130.254 100.497 130.398 100.406 130.574C100.321 130.75 100.278 130.937 100.278 131.134V133.502H99.6219Z" fill="black" fill-opacity="0.87"/>
<path d="M112.352 133.502V127.862H112.928L115.192 132.974H114.96L117.224 127.862H117.8V133.502H117.192V128.718H117.432L115.296 133.502H114.856L112.712 128.718H112.952V133.502H112.352ZM120.667 133.574C120.31 133.574 119.998 133.492 119.731 133.326C119.465 133.156 119.257 132.916 119.107 132.606C118.963 132.297 118.891 131.926 118.891 131.494C118.891 131.057 118.963 130.684 119.107 130.374C119.257 130.065 119.465 129.828 119.731 129.662C119.998 129.497 120.31 129.414 120.667 129.414C121.03 129.414 121.342 129.508 121.603 129.694C121.87 129.876 122.046 130.124 122.131 130.438H122.035L122.123 129.486H122.747C122.731 129.641 122.715 129.798 122.699 129.958C122.689 130.113 122.683 130.265 122.683 130.414V133.502H122.035V132.558H122.123C122.038 132.873 121.862 133.121 121.595 133.302C121.329 133.484 121.019 133.574 120.667 133.574ZM120.795 133.046C121.179 133.046 121.483 132.916 121.707 132.654C121.931 132.388 122.043 132.001 122.043 131.494C122.043 130.982 121.931 130.596 121.707 130.334C121.483 130.068 121.179 129.934 120.795 129.934C120.417 129.934 120.113 130.068 119.883 130.334C119.659 130.596 119.547 130.982 119.547 131.494C119.547 132.001 119.659 132.388 119.883 132.654C120.113 132.916 120.417 133.046 120.795 133.046ZM123.737 135.318L123.585 134.782C123.836 134.724 124.044 134.654 124.209 134.574C124.38 134.5 124.521 134.398 124.633 134.27C124.745 134.142 124.841 133.982 124.921 133.79L125.129 133.318L125.113 133.59L123.361 129.486H124.065L125.513 133.014H125.305L126.737 129.486H127.417L125.561 133.838C125.454 134.094 125.337 134.308 125.209 134.478C125.081 134.654 124.942 134.796 124.793 134.902C124.649 135.014 124.489 135.102 124.313 135.166C124.137 135.23 123.945 135.281 123.737 135.318Z" fill="black" fill-opacity="0.87"/>
<path d="M137.813 134.99C137.727 134.99 137.629 134.985 137.517 134.974C137.41 134.969 137.301 134.953 137.189 134.926V134.374C137.29 134.396 137.383 134.412 137.469 134.422C137.559 134.438 137.639 134.446 137.709 134.446C137.954 134.446 138.138 134.369 138.261 134.214C138.383 134.065 138.445 133.825 138.445 133.494V127.862H139.109V133.502C139.109 133.822 139.061 134.094 138.965 134.318C138.874 134.542 138.733 134.71 138.541 134.822C138.354 134.934 138.111 134.99 137.813 134.99ZM141.861 133.574C141.387 133.574 141.027 133.444 140.781 133.182C140.541 132.921 140.421 132.521 140.421 131.982V129.486H141.069V131.966C141.069 132.334 141.144 132.606 141.293 132.782C141.443 132.953 141.675 133.038 141.989 133.038C142.341 133.038 142.624 132.924 142.837 132.694C143.051 132.465 143.157 132.158 143.157 131.774V129.486H143.805V133.502H143.173V132.598H143.277C143.165 132.908 142.984 133.148 142.733 133.318C142.488 133.489 142.197 133.574 141.861 133.574ZM145.063 133.502V130.414C145.063 130.265 145.055 130.113 145.039 129.958C145.028 129.798 145.015 129.641 144.999 129.486H145.623L145.703 130.366H145.607C145.724 130.057 145.911 129.822 146.167 129.662C146.428 129.497 146.729 129.414 147.071 129.414C147.545 129.414 147.903 129.542 148.143 129.798C148.388 130.049 148.511 130.446 148.511 130.99V133.502H147.863V131.03C147.863 130.652 147.785 130.377 147.631 130.206C147.481 130.03 147.247 129.942 146.927 129.942C146.553 129.942 146.257 130.057 146.039 130.286C145.82 130.516 145.711 130.822 145.711 131.206V133.502H145.063Z" fill="black" fill-opacity="0.87"/>
<path d="M160.197 134.99C160.112 134.99 160.013 134.985 159.901 134.974C159.795 134.969 159.685 134.953 159.573 134.926V134.374C159.675 134.396 159.768 134.412 159.853 134.422C159.944 134.438 160.024 134.446 160.093 134.446C160.339 134.446 160.523 134.369 160.645 134.214C160.768 134.065 160.829 133.825 160.829 133.494V127.862H161.493V133.502C161.493 133.822 161.445 134.094 161.349 134.318C161.259 134.542 161.117 134.71 160.925 134.822C160.739 134.934 160.496 134.99 160.197 134.99ZM164.246 133.574C163.772 133.574 163.412 133.444 163.166 133.182C162.926 132.921 162.806 132.521 162.806 131.982V129.486H163.454V131.966C163.454 132.334 163.529 132.606 163.678 132.782C163.828 132.953 164.06 133.038 164.374 133.038C164.726 133.038 165.009 132.924 165.222 132.694C165.436 132.465 165.542 132.158 165.542 131.774V129.486H166.19V133.502H165.558V132.598H165.662C165.55 132.908 165.369 133.148 165.118 133.318C164.873 133.489 164.582 133.574 164.246 133.574ZM167.447 133.502V127.614H168.095V133.502H167.447Z" fill="black" fill-opacity="0.87"/>
<path d="M179.148 133.502L181.636 127.862H182.212L184.74 133.502H184.052L183.348 131.894L183.644 132.062H180.196L180.516 131.894L179.828 133.502H179.148ZM181.916 128.622L180.62 131.662L180.428 131.518H183.404L183.26 131.662L181.932 128.622H181.916ZM186.935 133.574C186.461 133.574 186.101 133.444 185.855 133.182C185.615 132.921 185.495 132.521 185.495 131.982V129.486H186.143V131.966C186.143 132.334 186.218 132.606 186.367 132.782C186.517 132.953 186.749 133.038 187.063 133.038C187.415 133.038 187.698 132.924 187.911 132.694C188.125 132.465 188.231 132.158 188.231 131.774V129.486H188.879V133.502H188.247V132.598H188.351C188.239 132.908 188.058 133.148 187.807 133.318C187.562 133.489 187.271 133.574 186.935 133.574ZM191.904 135.286C191.558 135.286 191.238 135.244 190.944 135.158C190.651 135.073 190.387 134.942 190.152 134.766L190.344 134.278C190.51 134.396 190.672 134.489 190.832 134.558C190.992 134.628 191.158 134.678 191.328 134.71C191.499 134.748 191.68 134.766 191.872 134.766C192.267 134.766 192.566 134.662 192.768 134.454C192.971 134.246 193.072 133.95 193.072 133.566V132.39H193.152C193.067 132.705 192.891 132.956 192.624 133.142C192.358 133.324 192.046 133.414 191.688 133.414C191.32 133.414 191 133.334 190.728 133.174C190.462 133.009 190.254 132.777 190.104 132.478C189.96 132.174 189.888 131.817 189.888 131.406C189.888 131.001 189.96 130.649 190.104 130.35C190.254 130.052 190.462 129.822 190.728 129.662C191 129.497 191.32 129.414 191.688 129.414C192.051 129.414 192.363 129.505 192.624 129.686C192.891 129.868 193.067 130.118 193.152 130.438L193.072 130.358L193.144 129.486H193.776C193.755 129.641 193.739 129.798 193.728 129.958C193.718 130.113 193.712 130.265 193.712 130.414V133.478C193.712 134.076 193.558 134.526 193.248 134.83C192.944 135.134 192.496 135.286 191.904 135.286ZM191.808 132.886C192.198 132.886 192.504 132.758 192.728 132.502C192.952 132.241 193.064 131.876 193.064 131.406C193.064 130.937 192.952 130.574 192.728 130.318C192.504 130.062 192.198 129.934 191.808 129.934C191.424 129.934 191.118 130.062 190.888 130.318C190.659 130.574 190.544 130.937 190.544 131.406C190.544 131.876 190.659 132.241 190.888 132.502C191.118 132.758 191.424 132.886 191.808 132.886Z" fill="black" fill-opacity="0.87"/>
<path d="M207.339 133.574C206.886 133.574 206.481 133.516 206.123 133.398C205.766 133.281 205.454 133.113 205.187 132.894L205.427 132.366C205.614 132.505 205.801 132.622 205.987 132.718C206.179 132.809 206.385 132.878 206.603 132.926C206.822 132.969 207.067 132.99 207.339 132.99C207.814 132.99 208.166 132.902 208.395 132.726C208.625 132.55 208.739 132.316 208.739 132.022C208.739 131.772 208.659 131.58 208.499 131.446C208.339 131.313 208.059 131.206 207.659 131.126L206.819 130.958C206.302 130.852 205.915 130.678 205.659 130.438C205.409 130.198 205.283 129.873 205.283 129.462C205.283 129.126 205.369 128.833 205.539 128.582C205.715 128.332 205.961 128.137 206.275 127.998C206.59 127.86 206.955 127.79 207.371 127.79C207.771 127.79 208.137 127.852 208.467 127.974C208.798 128.092 209.081 128.265 209.315 128.494L209.083 129.006C208.833 128.782 208.569 128.622 208.291 128.526C208.019 128.425 207.71 128.374 207.363 128.374C206.926 128.374 206.579 128.47 206.323 128.662C206.073 128.849 205.947 129.105 205.947 129.43C205.947 129.692 206.027 129.897 206.187 130.046C206.347 130.19 206.611 130.3 206.979 130.374L207.827 130.542C208.371 130.654 208.771 130.822 209.027 131.046C209.283 131.27 209.411 131.585 209.411 131.99C209.411 132.3 209.326 132.574 209.155 132.814C208.99 133.054 208.753 133.241 208.443 133.374C208.134 133.508 207.766 133.574 207.339 133.574ZM212.196 133.574C211.566 133.574 211.07 133.393 210.708 133.03C210.345 132.662 210.164 132.153 210.164 131.502C210.164 131.081 210.244 130.716 210.404 130.406C210.564 130.092 210.788 129.849 211.076 129.678C211.364 129.502 211.694 129.414 212.068 129.414C212.436 129.414 212.745 129.492 212.996 129.646C213.246 129.801 213.438 130.022 213.572 130.31C213.705 130.593 213.772 130.929 213.772 131.318V131.558H210.66V131.15H213.348L213.212 131.254C213.212 130.828 213.116 130.494 212.924 130.254C212.732 130.014 212.446 129.894 212.068 129.894C211.668 129.894 211.356 130.036 211.132 130.318C210.908 130.596 210.796 130.972 210.796 131.446V131.518C210.796 132.02 210.918 132.401 211.164 132.662C211.414 132.918 211.764 133.046 212.212 133.046C212.452 133.046 212.676 133.012 212.884 132.942C213.097 132.868 213.3 132.748 213.492 132.582L213.716 133.038C213.54 133.209 213.316 133.342 213.044 133.438C212.777 133.529 212.494 133.574 212.196 133.574ZM214.763 135.23V130.414C214.763 130.265 214.755 130.113 214.739 129.958C214.729 129.798 214.715 129.641 214.699 129.486H215.323L215.411 130.438H215.315C215.401 130.124 215.574 129.876 215.835 129.694C216.097 129.508 216.409 129.414 216.771 129.414C217.134 129.414 217.446 129.497 217.707 129.662C217.974 129.828 218.182 130.065 218.331 130.374C218.481 130.684 218.555 131.057 218.555 131.494C218.555 131.926 218.481 132.297 218.331 132.606C218.187 132.916 217.982 133.156 217.715 133.326C217.449 133.492 217.134 133.574 216.771 133.574C216.414 133.574 216.105 133.484 215.843 133.302C215.582 133.121 215.409 132.873 215.323 132.558H215.411V135.23H214.763ZM216.643 133.046C217.027 133.046 217.331 132.916 217.555 132.654C217.785 132.388 217.899 132.001 217.899 131.494C217.899 130.982 217.785 130.596 217.555 130.334C217.331 130.068 217.027 129.934 216.643 129.934C216.265 129.934 215.961 130.068 215.731 130.334C215.507 130.596 215.395 130.982 215.395 131.494C215.395 132.001 215.507 132.388 215.731 132.654C215.961 132.916 216.265 133.046 216.643 133.046Z" fill="black" fill-opacity="0.87"/>
<path d="M229.09 130.678C229.09 130.081 229.191 129.569 229.394 129.142C229.602 128.71 229.898 128.377 230.282 128.142C230.671 127.908 231.138 127.79 231.682 127.79C232.21 127.79 232.668 127.908 233.058 128.142C233.447 128.377 233.746 128.71 233.954 129.142C234.167 129.569 234.274 130.078 234.274 130.67C234.274 131.268 234.167 131.782 233.954 132.214C233.74 132.646 233.439 132.982 233.05 133.222C232.666 133.457 232.21 133.574 231.682 133.574C231.138 133.574 230.674 133.457 230.29 133.222C229.906 132.982 229.61 132.646 229.402 132.214C229.194 131.782 229.09 131.27 229.09 130.678ZM229.786 130.678C229.786 131.404 229.946 131.972 230.266 132.382C230.586 132.788 231.058 132.99 231.682 132.99C232.279 132.99 232.743 132.788 233.074 132.382C233.41 131.972 233.578 131.404 233.578 130.678C233.578 129.948 233.412 129.382 233.082 128.982C232.751 128.577 232.284 128.374 231.682 128.374C231.058 128.374 230.586 128.577 230.266 128.982C229.946 129.382 229.786 129.948 229.786 130.678ZM237.093 133.574C236.699 133.574 236.355 133.489 236.061 133.318C235.773 133.148 235.549 132.905 235.389 132.59C235.235 132.276 235.157 131.902 235.157 131.47C235.157 131.033 235.237 130.662 235.397 130.358C235.557 130.049 235.781 129.814 236.069 129.654C236.363 129.494 236.704 129.414 237.093 129.414C237.349 129.414 237.597 129.46 237.837 129.55C238.083 129.641 238.285 129.769 238.445 129.934L238.213 130.398C238.053 130.244 237.877 130.129 237.685 130.054C237.499 129.98 237.315 129.942 237.133 129.942C236.717 129.942 236.395 130.073 236.165 130.334C235.936 130.596 235.821 130.977 235.821 131.478C235.821 131.974 235.936 132.358 236.165 132.63C236.395 132.902 236.717 133.038 237.133 133.038C237.309 133.038 237.491 133.004 237.677 132.934C237.869 132.865 238.048 132.75 238.213 132.59L238.445 133.046C238.28 133.217 238.075 133.348 237.829 133.438C237.584 133.529 237.339 133.574 237.093 133.574ZM240.79 133.574C240.396 133.574 240.094 133.462 239.886 133.238C239.678 133.009 239.574 132.665 239.574 132.206V129.99H238.79V129.486H239.574V128.39L240.222 128.206V129.486H241.374V129.99H240.222V132.134C240.222 132.454 240.276 132.684 240.382 132.822C240.494 132.956 240.66 133.022 240.878 133.022C240.98 133.022 241.07 133.014 241.15 132.998C241.23 132.977 241.302 132.953 241.366 132.926V133.47C241.292 133.502 241.201 133.526 241.094 133.542C240.993 133.564 240.892 133.574 240.79 133.574Z" fill="black" fill-opacity="0.87"/>
<path d="M252.096 133.502V127.862H252.616L256.232 132.662H256.048V127.862H256.664V133.502H256.152L252.536 128.702H252.712V133.502H252.096ZM259.649 133.574C259.265 133.574 258.929 133.492 258.641 133.326C258.358 133.156 258.139 132.916 257.985 132.606C257.83 132.292 257.753 131.921 257.753 131.494C257.753 131.062 257.83 130.692 257.985 130.382C258.139 130.073 258.358 129.836 258.641 129.67C258.929 129.5 259.265 129.414 259.649 129.414C260.038 129.414 260.374 129.5 260.657 129.67C260.945 129.836 261.166 130.073 261.321 130.382C261.481 130.692 261.561 131.062 261.561 131.494C261.561 131.921 261.481 132.292 261.321 132.606C261.166 132.916 260.945 133.156 260.657 133.326C260.374 133.492 260.038 133.574 259.649 133.574ZM259.649 133.046C260.033 133.046 260.337 132.916 260.561 132.654C260.785 132.388 260.897 132.001 260.897 131.494C260.897 130.982 260.782 130.596 260.553 130.334C260.329 130.068 260.027 129.934 259.649 129.934C259.27 129.934 258.969 130.068 258.745 130.334C258.521 130.596 258.409 130.982 258.409 131.494C258.409 132.001 258.521 132.388 258.745 132.654C258.969 132.916 259.27 133.046 259.649 133.046ZM263.7 133.502L261.98 129.486H262.684L264.124 133.022H263.908L265.364 129.486H266.036L264.316 133.502H263.7Z" fill="black" fill-opacity="0.87"/>
<path d="M277.153 133.502V127.862H279.025C279.649 127.862 280.177 127.972 280.609 128.19C281.041 128.404 281.369 128.721 281.593 129.142C281.817 129.558 281.929 130.07 281.929 130.678C281.929 131.281 281.817 131.793 281.593 132.214C281.369 132.636 281.041 132.956 280.609 133.174C280.177 133.393 279.649 133.502 279.025 133.502H277.153ZM277.817 132.934H278.977C279.745 132.934 280.315 132.748 280.689 132.374C281.062 131.996 281.249 131.43 281.249 130.678C281.249 129.921 281.062 129.356 280.689 128.982C280.315 128.609 279.745 128.422 278.977 128.422H277.817V132.934ZM284.841 133.574C284.212 133.574 283.716 133.393 283.353 133.03C282.991 132.662 282.809 132.153 282.809 131.502C282.809 131.081 282.889 130.716 283.049 130.406C283.209 130.092 283.433 129.849 283.721 129.678C284.009 129.502 284.34 129.414 284.713 129.414C285.081 129.414 285.391 129.492 285.641 129.646C285.892 129.801 286.084 130.022 286.217 130.31C286.351 130.593 286.417 130.929 286.417 131.318V131.558H283.305V131.15H285.993L285.857 131.254C285.857 130.828 285.761 130.494 285.569 130.254C285.377 130.014 285.092 129.894 284.713 129.894C284.313 129.894 284.001 130.036 283.777 130.318C283.553 130.596 283.441 130.972 283.441 131.446V131.518C283.441 132.02 283.564 132.401 283.809 132.662C284.06 132.918 284.409 133.046 284.857 133.046C285.097 133.046 285.321 133.012 285.529 132.942C285.743 132.868 285.945 132.748 286.137 132.582L286.361 133.038C286.185 133.209 285.961 133.342 285.689 133.438C285.423 133.529 285.14 133.574 284.841 133.574ZM289.097 133.574C288.702 133.574 288.358 133.489 288.065 133.318C287.777 133.148 287.553 132.905 287.393 132.59C287.238 132.276 287.161 131.902 287.161 131.47C287.161 131.033 287.241 130.662 287.401 130.358C287.561 130.049 287.785 129.814 288.073 129.654C288.366 129.494 288.708 129.414 289.097 129.414C289.353 129.414 289.601 129.46 289.841 129.55C290.086 129.641 290.289 129.769 290.449 129.934L290.217 130.398C290.057 130.244 289.881 130.129 289.689 130.054C289.502 129.98 289.318 129.942 289.137 129.942C288.721 129.942 288.398 130.073 288.169 130.334C287.94 130.596 287.825 130.977 287.825 131.478C287.825 131.974 287.94 132.358 288.169 132.63C288.398 132.902 288.721 133.038 289.137 133.038C289.313 133.038 289.494 133.004 289.681 132.934C289.873 132.865 290.052 132.75 290.217 132.59L290.449 133.046C290.284 133.217 290.078 133.348 289.833 133.438C289.588 133.529 289.342 133.574 289.097 133.574Z" fill="black" fill-opacity="0.87"/>
<path d="M5.44103 29.0491V27.8251H2.75303V27.3451L5.54503 23.4091H6.08903V27.2891H6.95303V27.8251H6.08903V29.0491H5.44103ZM5.44103 27.2891V24.1931H5.61703L3.29703 27.4571V27.2891H5.44103ZM9.5499 29.1211C8.9099 29.1211 8.41924 28.8731 8.0779 28.3771C7.73657 27.8811 7.5659 27.1637 7.5659 26.2251C7.5659 25.2811 7.73657 24.5637 8.0779 24.0731C8.41924 23.5824 8.9099 23.3371 9.5499 23.3371C10.1952 23.3371 10.6859 23.5824 11.0219 24.0731C11.3632 24.5637 11.5339 25.2784 11.5339 26.2171C11.5339 27.1611 11.3632 27.8811 11.0219 28.3771C10.6806 28.8731 10.1899 29.1211 9.5499 29.1211ZM9.5499 28.5451C9.9979 28.5451 10.3312 28.3557 10.5499 27.9771C10.7686 27.5984 10.8779 27.0117 10.8779 26.2171C10.8779 25.4171 10.7686 24.8331 10.5499 24.4651C10.3312 24.0917 9.9979 23.9051 9.5499 23.9051C9.10724 23.9051 8.7739 24.0917 8.5499 24.4651C8.33124 24.8384 8.2219 25.4224 8.2219 26.2171C8.2219 27.0117 8.33124 27.5984 8.5499 27.9771C8.7739 28.3557 9.10724 28.5451 9.5499 28.5451Z" fill="black" fill-opacity="0.6"/>
<rect width="278.898" height="0.657778" transform="translate(17.1021 25.6533)" fill="black" fill-opacity="0.12"/>
<path d="M4.72103 59.3786C4.34236 59.3786 3.97969 59.32 3.63303 59.2026C3.28636 59.0853 2.99569 58.9173 2.76103 58.6986L3.00903 58.1866C3.27036 58.4 3.53969 58.5546 3.81703 58.6506C4.09436 58.7466 4.39303 58.7946 4.71303 58.7946C5.13436 58.7946 5.45436 58.7066 5.67303 58.5306C5.89169 58.3493 6.00103 58.0853 6.00103 57.7386C6.00103 57.408 5.88903 57.1573 5.66503 56.9866C5.44103 56.8106 5.11303 56.7226 4.68103 56.7226H3.83303V56.1706H4.62503C4.99836 56.1706 5.29436 56.0746 5.51303 55.8826C5.73169 55.6906 5.84103 55.4293 5.84103 55.0986C5.84103 54.8 5.73969 54.5733 5.53703 54.4186C5.33969 54.2586 5.05436 54.1786 4.68103 54.1786C4.07303 54.1786 3.54769 54.3946 3.10503 54.8266L2.85703 54.3066C3.07569 54.0826 3.35036 53.9093 3.68103 53.7866C4.01169 53.6586 4.35836 53.5946 4.72103 53.5946C5.27569 53.5946 5.71036 53.7226 6.02503 53.9786C6.33969 54.2346 6.49703 54.5893 6.49703 55.0426C6.49703 55.3893 6.39836 55.688 6.20103 55.9386C6.00369 56.184 5.73703 56.352 5.40103 56.4426V56.3546C5.80103 56.4186 6.11036 56.5786 6.32903 56.8346C6.54769 57.0853 6.65703 57.4026 6.65703 57.7866C6.65703 58.2773 6.48369 58.6666 6.13703 58.9546C5.79569 59.2373 5.32369 59.3786 4.72103 59.3786ZM9.5499 59.3786C8.9099 59.3786 8.41924 59.1306 8.0779 58.6346C7.73657 58.1386 7.5659 57.4213 7.5659 56.4826C7.5659 55.5386 7.73657 54.8213 8.0779 54.3306C8.41924 53.84 8.9099 53.5946 9.5499 53.5946C10.1952 53.5946 10.6859 53.84 11.0219 54.3306C11.3632 54.8213 11.5339 55.536 11.5339 56.4746C11.5339 57.4186 11.3632 58.1386 11.0219 58.6346C10.6806 59.1306 10.1899 59.3786 9.5499 59.3786ZM9.5499 58.8026C9.9979 58.8026 10.3312 58.6133 10.5499 58.2346C10.7686 57.856 10.8779 57.2693 10.8779 56.4746C10.8779 55.6746 10.7686 55.0906 10.5499 54.7226C10.3312 54.3493 9.9979 54.1626 9.5499 54.1626C9.10724 54.1626 8.7739 54.3493 8.5499 54.7226C8.33124 55.096 8.2219 55.68 8.2219 56.4746C8.2219 57.2693 8.33124 57.856 8.5499 58.2346C8.7739 58.6133 9.10724 58.8026 9.5499 58.8026Z" fill="black" fill-opacity="0.6"/>
<rect width="278.898" height="0.657778" transform="translate(17.1021 55.9111)" fill="black" fill-opacity="0.12"/>
<path d="M3.04103 89.5645V89.0685L5.04103 86.9805C5.30236 86.7085 5.49703 86.4498 5.62503 86.2045C5.75836 85.9538 5.82503 85.6951 5.82503 85.4285C5.82503 85.1031 5.72369 84.8578 5.52103 84.6925C5.31836 84.5218 5.02503 84.4365 4.64103 84.4365C4.34236 84.4365 4.06503 84.4898 3.80903 84.5965C3.55836 84.6978 3.31569 84.8605 3.08103 85.0845L2.84103 84.5645C3.05436 84.3511 3.32636 84.1805 3.65703 84.0525C3.98769 83.9191 4.33703 83.8525 4.70503 83.8525C5.27569 83.8525 5.71569 83.9858 6.02503 84.2525C6.33436 84.5138 6.48903 84.8871 6.48903 85.3725C6.48903 85.7298 6.40103 86.0711 6.22503 86.3965C6.05436 86.7165 5.80369 87.0471 5.47303 87.3885L3.70503 89.1805V88.9965H6.72903V89.5645H3.04103ZM9.5499 89.6365C8.9099 89.6365 8.41924 89.3885 8.0779 88.8925C7.73657 88.3965 7.5659 87.6791 7.5659 86.7405C7.5659 85.7965 7.73657 85.0791 8.0779 84.5885C8.41924 84.0978 8.9099 83.8525 9.5499 83.8525C10.1952 83.8525 10.6859 84.0978 11.0219 84.5885C11.3632 85.0791 11.5339 85.7938 11.5339 86.7325C11.5339 87.6765 11.3632 88.3965 11.0219 88.8925C10.6806 89.3885 10.1899 89.6365 9.5499 89.6365ZM9.5499 89.0605C9.9979 89.0605 10.3312 88.8711 10.5499 88.4925C10.7686 88.1138 10.8779 87.5271 10.8779 86.7325C10.8779 85.9325 10.7686 85.3485 10.5499 84.9805C10.3312 84.6071 9.9979 84.4205 9.5499 84.4205C9.10724 84.4205 8.7739 84.6071 8.5499 84.9805C8.33124 85.3538 8.2219 85.9378 8.2219 86.7325C8.2219 87.5271 8.33124 88.1138 8.5499 88.4925C8.7739 88.8711 9.10724 89.0605 9.5499 89.0605Z" fill="black" fill-opacity="0.6"/>
<rect width="278.898" height="0.657778" transform="translate(17.1021 86.1689)" fill="black" fill-opacity="0.12"/>
<path d="M9.49668 119.894C8.85668 119.894 8.36601 119.646 8.02468 119.15C7.68335 118.654 7.51268 117.937 7.51268 116.998C7.51268 116.054 7.68335 115.337 8.02468 114.846C8.36601 114.356 8.85668 114.11 9.49668 114.11C10.142 114.11 10.6327 114.356 10.9687 114.846C11.31 115.337 11.4807 116.052 11.4807 116.99C11.4807 117.934 11.31 118.654 10.9687 119.15C10.6273 119.646 10.1367 119.894 9.49668 119.894ZM9.49668 119.318C9.94468 119.318 10.278 119.129 10.4967 118.75C10.7153 118.372 10.8247 117.785 10.8247 116.99C10.8247 116.19 10.7153 115.606 10.4967 115.238C10.278 114.865 9.94468 114.678 9.49668 114.678C9.05401 114.678 8.72068 114.865 8.49668 115.238C8.27801 115.612 8.16868 116.196 8.16868 116.99C8.16868 117.785 8.27801 118.372 8.49668 118.75C8.72068 119.129 9.05401 119.318 9.49668 119.318Z" fill="black" fill-opacity="0.6"/>
<rect width="278.898" height="0.657778" transform="translate(17.1021 116.427)" fill="black" fill-opacity="0.12"/>
<g clip-path="url(#clip1_211_12698)">
<rect width="6.57778" height="21.7067" transform="translate(15.7866 94.72)" fill="#056839"/>
<rect width="6.57778" height="34.2044" transform="translate(22.3643 82.2224)" fill="#D6DF24"/>
<rect width="6.57778" height="32.2311" transform="translate(39.4668 84.1956)" fill="#056839"/>
<rect width="6.57778" height="38.8089" transform="translate(46.0444 77.6179)" fill="#D6DF24"/>
<rect width="6.57778" height="19.7333" transform="translate(63.1465 96.6934)" fill="#056839"/>
<rect width="6.57778" height="29.6" transform="translate(69.7246 86.8267)" fill="#D6DF24"/>
<rect width="6.57778" height="41.44" transform="translate(86.8267 74.9868)" fill="#056839"/>
<rect width="6.57778" height="61.8311" transform="translate(93.4043 54.5957)" fill="#D6DF24"/>
<rect width="6.57778" height="73.0133" transform="translate(110.507 43.4133)" fill="#056839"/>
<rect width="6.57778" height="85.5111" transform="translate(117.084 30.9155)" fill="#D6DF24"/>
<rect width="6.57778" height="59.2" transform="translate(134.187 57.2268)" fill="#056839"/>
<rect width="6.57778" height="69.7244" transform="translate(140.765 46.7024)" fill="#D6DF24"/>
<rect width="6.57778" height="41.44" transform="translate(157.867 74.9868)" fill="#056839"/>
<rect width="6.57778" height="61.8311" transform="translate(164.444 54.5957)" fill="#D6DF24"/>
<rect width="6.57778" height="30.2578" transform="translate(181.547 86.1689)" fill="#056839"/>
<rect width="6.57778" height="34.2044" transform="translate(188.125 82.2224)" fill="#D6DF24"/>
<rect width="6.57778" height="41.44" transform="translate(205.227 74.9868)" fill="#056839"/>
<rect width="6.57778" height="47.36" transform="translate(211.805 69.0667)" fill="#D6DF24"/>
<rect width="6.57778" height="31.5733" transform="translate(228.907 84.8535)" fill="#056839"/>
<rect width="6.57778" height="37.4933" transform="translate(235.484 78.9333)" fill="#D6DF24"/>
<rect width="6.57778" height="80.9067" transform="translate(252.586 35.52)" fill="#056839"/>
<rect width="6.57778" height="90.7733" transform="translate(259.165 25.6533)" fill="#D6DF24"/>
<rect width="6.57778" height="72.3556" transform="translate(276.267 44.0713)" fill="#056839"/>
<rect width="6.57778" height="74.9867" transform="translate(282.844 41.4402)" fill="#D6DF24"/>
</g>
</g>
<defs>
<clipPath id="clip0_211_12698">
<rect width="296" height="135.502" fill="white"/>
</clipPath>
<clipPath id="clip1_211_12698">
<rect width="273.636" height="116.427" fill="white" transform="translate(15.7866)"/>
</clipPath>
</defs>
</svg>
