<svg width="609" height="432" viewBox="0 0 609 432" fill="none" xmlns="http://www.w3.org/2000/svg">
<g filter="url(#filter0_d_1520_2280)">
<rect x="7" y="7" width="931.603" height="418" rx="15.3676" fill="white"/>
<path d="M58.0485 72.4926V55.5726H65.4405C67.2965 55.5726 68.7285 56.0126 69.7365 56.8926C70.7605 57.7726 71.2725 58.9966 71.2725 60.5646C71.2725 61.6046 71.0405 62.4926 70.5765 63.2286C70.1285 63.9646 69.4805 64.5326 68.6325 64.9326C67.7845 65.3166 66.7845 65.5086 65.6325 65.5086L65.9685 65.0526H66.7845C67.4565 65.0526 68.0565 65.2286 68.5845 65.5806C69.1125 65.9326 69.5445 66.4686 69.8805 67.1886L72.3525 72.4926H68.9445L66.4485 66.9966C66.2245 66.4366 65.8805 66.0686 65.4165 65.8926C64.9685 65.7166 64.4245 65.6286 63.7845 65.6286H61.1445V72.4926H58.0485ZM61.1445 63.3486H64.9365C66.0245 63.3486 66.8485 63.1246 67.4085 62.6766C67.9845 62.2126 68.2725 61.5406 68.2725 60.6606C68.2725 59.7806 67.9845 59.1166 67.4085 58.6686C66.8485 58.2206 66.0245 57.9966 64.9365 57.9966H61.1445V63.3486ZM80.2113 72.7326C78.1793 72.7326 76.5873 72.1726 75.4353 71.0526C74.2833 69.9326 73.7073 68.3966 73.7073 66.4446C73.7073 65.1806 73.9553 64.0766 74.4513 63.1326C74.9473 62.1886 75.6353 61.4526 76.5153 60.9246C77.4113 60.3966 78.4513 60.1326 79.6353 60.1326C80.8033 60.1326 81.7793 60.3806 82.5633 60.8766C83.3473 61.3726 83.9393 62.0686 84.3393 62.9646C84.7553 63.8606 84.9633 64.9086 84.9633 66.1086V66.9006H76.1313V65.3166H82.8273L82.4193 65.6526C82.4193 64.5326 82.1793 63.6766 81.6993 63.0846C81.2353 62.4926 80.5553 62.1966 79.6593 62.1966C78.6673 62.1966 77.8993 62.5486 77.3553 63.2526C76.8273 63.9566 76.5633 64.9406 76.5633 66.2046V66.5166C76.5633 67.8286 76.8833 68.8126 77.5233 69.4686C78.1793 70.1086 79.0993 70.4286 80.2833 70.4286C80.9713 70.4286 81.6113 70.3406 82.2033 70.1646C82.8113 69.9726 83.3873 69.6686 83.9313 69.2526L84.8193 71.2686C84.2433 71.7326 83.5553 72.0926 82.7553 72.3486C81.9553 72.6046 81.1073 72.7326 80.2113 72.7326ZM90.8683 72.4926L85.6363 60.3726H88.8283L92.6203 69.8526H91.8763L95.7643 60.3726H98.7643L93.5083 72.4926H90.8683ZM105.993 72.7326C103.961 72.7326 102.369 72.1726 101.217 71.0526C100.065 69.9326 99.4886 68.3966 99.4886 66.4446C99.4886 65.1806 99.7366 64.0766 100.233 63.1326C100.729 62.1886 101.417 61.4526 102.297 60.9246C103.193 60.3966 104.233 60.1326 105.417 60.1326C106.585 60.1326 107.561 60.3806 108.345 60.8766C109.129 61.3726 109.721 62.0686 110.121 62.9646C110.537 63.8606 110.745 64.9086 110.745 66.1086V66.9006H101.913V65.3166H108.609L108.201 65.6526C108.201 64.5326 107.961 63.6766 107.481 63.0846C107.017 62.4926 106.337 62.1966 105.441 62.1966C104.449 62.1966 103.681 62.5486 103.137 63.2526C102.609 63.9566 102.345 64.9406 102.345 66.2046V66.5166C102.345 67.8286 102.665 68.8126 103.305 69.4686C103.961 70.1086 104.881 70.4286 106.065 70.4286C106.753 70.4286 107.393 70.3406 107.985 70.1646C108.593 69.9726 109.169 69.6686 109.713 69.2526L110.601 71.2686C110.025 71.7326 109.337 72.0926 108.537 72.3486C107.737 72.6046 106.889 72.7326 105.993 72.7326ZM113.285 72.4926V63.3966C113.285 62.9006 113.269 62.3966 113.237 61.8846C113.205 61.3726 113.157 60.8686 113.093 60.3726H115.997L116.237 62.7726H115.949C116.333 61.9246 116.901 61.2766 117.653 60.8286C118.405 60.3646 119.277 60.1326 120.269 60.1326C121.693 60.1326 122.765 60.5326 123.485 61.3326C124.205 62.1326 124.565 63.3806 124.565 65.0766V72.4926H121.565V65.2206C121.565 64.2446 121.373 63.5486 120.989 63.1326C120.621 62.7006 120.061 62.4846 119.309 62.4846C118.381 62.4846 117.645 62.7726 117.101 63.3486C116.557 63.9246 116.285 64.6926 116.285 65.6526V72.4926H113.285ZM132.114 72.7326C130.626 72.7326 129.514 72.3246 128.778 71.5086C128.042 70.6926 127.674 69.4446 127.674 67.7646V60.3726H130.674V67.7406C130.674 68.6366 130.858 69.3006 131.226 69.7326C131.594 70.1486 132.154 70.3566 132.906 70.3566C133.754 70.3566 134.442 70.0686 134.97 69.4926C135.514 68.9166 135.786 68.1566 135.786 67.2126V60.3726H138.786V72.4926H135.858V70.0206H136.194C135.842 70.8846 135.306 71.5566 134.586 72.0366C133.882 72.5006 133.058 72.7326 132.114 72.7326ZM147.899 72.7326C145.867 72.7326 144.275 72.1726 143.123 71.0526C141.971 69.9326 141.395 68.3966 141.395 66.4446C141.395 65.1806 141.643 64.0766 142.139 63.1326C142.635 62.1886 143.323 61.4526 144.203 60.9246C145.099 60.3966 146.139 60.1326 147.323 60.1326C148.491 60.1326 149.467 60.3806 150.251 60.8766C151.035 61.3726 151.627 62.0686 152.027 62.9646C152.443 63.8606 152.651 64.9086 152.651 66.1086V66.9006H143.819V65.3166H150.515L150.107 65.6526C150.107 64.5326 149.867 63.6766 149.387 63.0846C148.923 62.4926 148.243 62.1966 147.347 62.1966C146.355 62.1966 145.587 62.5486 145.043 63.2526C144.515 63.9566 144.251 64.9406 144.251 66.2046V66.5166C144.251 67.8286 144.571 68.8126 145.211 69.4686C145.867 70.1086 146.787 70.4286 147.971 70.4286C148.659 70.4286 149.299 70.3406 149.891 70.1646C150.499 69.9726 151.075 69.6686 151.619 69.2526L152.507 71.2686C151.931 71.7326 151.243 72.0926 150.443 72.3486C149.643 72.6046 148.795 72.7326 147.899 72.7326Z" fill="#353535"/>
<path d="M58.5305 127.493V122.103H56.5725V120.717H58.5305V118.715H56.5725V117.329H58.5305V111.983H60.3785L65.6145 124.303H65.1305V111.983H67.0225V117.329H69.0025V118.715H67.0225V120.717H69.0025V122.103H67.0225V127.493H65.1965L59.9605 115.173H60.4445V127.493H58.5305ZM71.1939 127.493V125.799L76.5179 120.233C77.2072 119.514 77.7205 118.839 78.0579 118.209C78.3952 117.578 78.5639 116.925 78.5639 116.251C78.5639 115.415 78.2999 114.784 77.7719 114.359C77.2585 113.933 76.5105 113.721 75.5279 113.721C74.7505 113.721 74.0172 113.86 73.3279 114.139C72.6532 114.417 72.0005 114.843 71.3699 115.415L70.5779 113.677C71.1939 113.105 71.9565 112.65 72.8659 112.313C73.7899 111.961 74.7652 111.785 75.7919 111.785C77.4052 111.785 78.6445 112.151 79.5099 112.885C80.3899 113.618 80.8299 114.667 80.8299 116.031C80.8299 116.999 80.5952 117.93 80.1259 118.825C79.6565 119.705 78.9525 120.614 78.0139 121.553L73.4159 126.195V125.579H81.4679V127.493H71.1939ZM84.9793 130.199L84.0113 129.451C84.4366 128.996 84.7226 128.578 84.8693 128.197C85.0306 127.815 85.1113 127.419 85.1113 127.009L85.5953 127.493H83.8573V124.875H86.4753V126.657C86.4753 127.317 86.3653 127.925 86.1453 128.483C85.9253 129.055 85.5366 129.627 84.9793 130.199ZM89.98 127.493L97.592 113.039V113.919H89.1V111.983H99.66V113.677L92.488 127.493H89.98ZM107.791 127.691C107.117 127.691 106.449 127.617 105.789 127.471C105.129 127.324 104.513 127.119 103.941 126.855C103.369 126.576 102.871 126.246 102.445 125.865L103.237 124.127C103.941 124.669 104.66 125.08 105.393 125.359C106.141 125.623 106.926 125.755 107.747 125.755C108.789 125.755 109.603 125.483 110.189 124.941C110.791 124.398 111.091 123.672 111.091 122.763C111.091 121.824 110.805 121.069 110.233 120.497C109.676 119.91 108.899 119.617 107.901 119.617C107.212 119.617 106.581 119.756 106.009 120.035C105.452 120.313 104.961 120.739 104.535 121.311H102.951V111.983H112.345V113.897H105.129V119.485H104.557C104.953 118.927 105.481 118.495 106.141 118.187C106.816 117.879 107.571 117.725 108.407 117.725C109.405 117.725 110.27 117.93 111.003 118.341C111.737 118.751 112.301 119.323 112.697 120.057C113.108 120.79 113.313 121.655 113.313 122.653C113.313 123.65 113.086 124.53 112.631 125.293C112.191 126.041 111.553 126.627 110.717 127.053C109.896 127.478 108.921 127.691 107.791 127.691ZM120.763 127.691C118.973 127.691 117.595 127.009 116.627 125.645C115.673 124.266 115.197 122.293 115.197 119.727C115.197 117.116 115.673 115.143 116.627 113.809C117.595 112.459 118.973 111.785 120.763 111.785C122.567 111.785 123.945 112.459 124.899 113.809C125.852 115.143 126.329 117.109 126.329 119.705C126.329 122.286 125.845 124.266 124.877 125.645C123.923 127.009 122.552 127.691 120.763 127.691ZM120.763 125.777C121.892 125.777 122.728 125.285 123.271 124.303C123.828 123.32 124.107 121.787 124.107 119.705C124.107 117.607 123.828 116.082 123.271 115.129C122.728 114.161 121.892 113.677 120.763 113.677C119.648 113.677 118.812 114.161 118.255 115.129C117.697 116.082 117.419 117.6 117.419 119.683C117.419 121.78 117.697 123.32 118.255 124.303C118.827 125.285 119.663 125.777 120.763 125.777ZM129.774 130.199L128.806 129.451C129.232 128.996 129.518 128.578 129.664 128.197C129.826 127.815 129.906 127.419 129.906 127.009L130.39 127.493H128.652V124.875H131.27V126.657C131.27 127.317 131.16 127.925 130.94 128.483C130.72 129.055 130.332 129.627 129.774 130.199ZM139.175 127.691C137.386 127.691 136.007 127.009 135.039 125.645C134.086 124.266 133.609 122.293 133.609 119.727C133.609 117.116 134.086 115.143 135.039 113.809C136.007 112.459 137.386 111.785 139.175 111.785C140.979 111.785 142.358 112.459 143.311 113.809C144.264 115.143 144.741 117.109 144.741 119.705C144.741 122.286 144.257 124.266 143.289 125.645C142.336 127.009 140.964 127.691 139.175 127.691ZM139.175 125.777C140.304 125.777 141.14 125.285 141.683 124.303C142.24 123.32 142.519 121.787 142.519 119.705C142.519 117.607 142.24 116.082 141.683 115.129C141.14 114.161 140.304 113.677 139.175 113.677C138.06 113.677 137.224 114.161 136.667 115.129C136.11 116.082 135.831 117.6 135.831 119.683C135.831 121.78 136.11 123.32 136.667 124.303C137.239 125.285 138.075 125.777 139.175 125.777ZM152.366 127.691C150.577 127.691 149.198 127.009 148.23 125.645C147.277 124.266 146.8 122.293 146.8 119.727C146.8 117.116 147.277 115.143 148.23 113.809C149.198 112.459 150.577 111.785 152.366 111.785C154.17 111.785 155.549 112.459 156.502 113.809C157.456 115.143 157.932 117.109 157.932 119.705C157.932 122.286 157.448 124.266 156.48 125.645C155.527 127.009 154.156 127.691 152.366 127.691ZM152.366 125.777C153.496 125.777 154.332 125.285 154.874 124.303C155.432 123.32 155.71 121.787 155.71 119.705C155.71 117.607 155.432 116.082 154.874 115.129C154.332 114.161 153.496 113.677 152.366 113.677C151.252 113.677 150.416 114.161 149.858 115.129C149.301 116.082 149.022 117.6 149.022 119.683C149.022 121.78 149.301 123.32 149.858 124.303C150.43 125.285 151.266 125.777 152.366 125.777ZM165.558 127.691C163.768 127.691 162.39 127.009 161.422 125.645C160.468 124.266 159.992 122.293 159.992 119.727C159.992 117.116 160.468 115.143 161.422 113.809C162.39 112.459 163.768 111.785 165.558 111.785C167.362 111.785 168.74 112.459 169.694 113.809C170.647 115.143 171.124 117.109 171.124 119.705C171.124 122.286 170.64 124.266 169.672 125.645C168.718 127.009 167.347 127.691 165.558 127.691ZM165.558 125.777C166.687 125.777 167.523 125.285 168.066 124.303C168.623 123.32 168.902 121.787 168.902 119.705C168.902 117.607 168.623 116.082 168.066 115.129C167.523 114.161 166.687 113.677 165.558 113.677C164.443 113.677 163.607 114.161 163.05 115.129C162.492 116.082 162.214 117.6 162.214 119.683C162.214 121.78 162.492 123.32 163.05 124.303C163.622 125.285 164.458 125.777 165.558 125.777Z" fill="#353535"/>
<path d="M60.7665 171.029V159.761H56.3745V158.339H66.8685V159.761H62.4585V171.029H60.7665ZM70.9054 171.191C70.0174 171.191 69.2494 171.005 68.6014 170.633C67.9534 170.249 67.4494 169.709 67.0894 169.013C66.7294 168.305 66.5494 167.465 66.5494 166.493C66.5494 165.533 66.7294 164.705 67.0894 164.009C67.4494 163.301 67.9534 162.761 68.6014 162.389C69.2494 162.005 70.0174 161.813 70.9054 161.813C71.7934 161.813 72.5614 162.005 73.2094 162.389C73.8694 162.761 74.3734 163.301 74.7214 164.009C75.0814 164.705 75.2614 165.533 75.2614 166.493C75.2614 167.465 75.0814 168.305 74.7214 169.013C74.3734 169.709 73.8694 170.249 73.2094 170.633C72.5614 171.005 71.7934 171.191 70.9054 171.191ZM70.9054 169.895C71.7214 169.895 72.3754 169.607 72.8674 169.031C73.3594 168.455 73.6054 167.609 73.6054 166.493C73.6054 165.377 73.3594 164.537 72.8674 163.973C72.3754 163.409 71.7214 163.127 70.9054 163.127C70.0774 163.127 69.4174 163.409 68.9254 163.973C68.4454 164.537 68.2054 165.377 68.2054 166.493C68.2054 167.609 68.4454 168.455 68.9254 169.031C69.4174 169.607 70.0774 169.895 70.9054 169.895ZM80.7566 171.191C79.8086 171.191 79.0886 170.933 78.5966 170.417C78.1166 169.889 77.8766 169.097 77.8766 168.041V163.235H76.1126V161.975H77.8766V159.545L79.5146 159.095V161.975H82.0706V163.235H79.5146V167.897C79.5146 168.593 79.6346 169.091 79.8746 169.391C80.1266 169.679 80.4866 169.823 80.9546 169.823C81.1946 169.823 81.3986 169.805 81.5666 169.769C81.7466 169.721 81.9086 169.667 82.0526 169.607V170.957C81.8726 171.029 81.6626 171.083 81.4226 171.119C81.1946 171.167 80.9726 171.191 80.7566 171.191ZM87.2446 171.191C86.4526 171.191 85.7566 171.005 85.1566 170.633C84.5566 170.261 84.0886 169.721 83.7526 169.013C83.4166 168.305 83.2486 167.465 83.2486 166.493C83.2486 165.521 83.4166 164.687 83.7526 163.991C84.0886 163.283 84.5566 162.743 85.1566 162.371C85.7566 161.999 86.4526 161.813 87.2446 161.813C88.0486 161.813 88.7446 162.017 89.3326 162.425C89.9326 162.821 90.3286 163.367 90.5206 164.063H90.3046L90.5026 161.975H92.0866C92.0506 162.335 92.0146 162.695 91.9786 163.055C91.9546 163.415 91.9426 163.769 91.9426 164.117V171.029H90.3046V168.959H90.5026C90.3106 169.643 89.9146 170.189 89.3146 170.597C88.7266 170.993 88.0366 171.191 87.2446 171.191ZM87.6226 169.895C88.4386 169.895 89.0926 169.607 89.5846 169.031C90.0766 168.455 90.3226 167.609 90.3226 166.493C90.3226 165.377 90.0766 164.537 89.5846 163.973C89.0926 163.409 88.4386 163.127 87.6226 163.127C86.8066 163.127 86.1466 163.409 85.6426 163.973C85.1506 164.537 84.9046 165.377 84.9046 166.493C84.9046 167.609 85.1506 168.455 85.6426 169.031C86.1346 169.607 86.7946 169.895 87.6226 169.895ZM94.687 171.029V157.781H96.325V171.029H94.687ZM103.99 171.029V158.339H109.246C110.602 158.339 111.646 158.657 112.378 159.293C113.122 159.929 113.494 160.817 113.494 161.957C113.494 162.713 113.326 163.355 112.99 163.883C112.654 164.411 112.18 164.813 111.568 165.089C110.968 165.365 110.266 165.503 109.462 165.503L109.768 165.251H110.2C110.692 165.251 111.13 165.377 111.514 165.629C111.898 165.869 112.216 166.265 112.468 166.817L114.268 171.029H112.414L110.668 166.853C110.464 166.337 110.164 166.001 109.768 165.845C109.384 165.689 108.898 165.611 108.31 165.611H105.664V171.029H103.99ZM105.664 164.315H108.994C109.918 164.315 110.62 164.117 111.1 163.721C111.592 163.325 111.838 162.749 111.838 161.993C111.838 161.249 111.592 160.685 111.1 160.301C110.62 159.905 109.918 159.707 108.994 159.707H105.664V164.315ZM120.237 171.191C118.797 171.191 117.657 170.777 116.817 169.949C115.989 169.121 115.575 167.981 115.575 166.529C115.575 165.569 115.755 164.741 116.115 164.045C116.487 163.337 116.997 162.791 117.645 162.407C118.293 162.011 119.049 161.813 119.913 161.813C120.741 161.813 121.443 161.993 122.019 162.353C122.595 162.701 123.033 163.199 123.333 163.847C123.633 164.495 123.783 165.263 123.783 166.151V166.691H116.853V165.719H122.667L122.361 165.953C122.361 165.017 122.151 164.291 121.731 163.775C121.323 163.259 120.717 163.001 119.913 163.001C119.037 163.001 118.359 163.307 117.879 163.919C117.399 164.519 117.159 165.341 117.159 166.385V166.547C117.159 167.651 117.429 168.485 117.969 169.049C118.521 169.613 119.283 169.895 120.255 169.895C120.795 169.895 121.299 169.817 121.767 169.661C122.235 169.505 122.685 169.247 123.117 168.887L123.657 170.021C123.249 170.393 122.739 170.681 122.127 170.885C121.527 171.089 120.897 171.191 120.237 171.191ZM128.464 171.029L124.594 161.975H126.358L129.508 169.751H129.004L132.208 161.975H133.882L129.994 171.029H128.464ZM139.397 171.191C137.957 171.191 136.817 170.777 135.977 169.949C135.149 169.121 134.735 167.981 134.735 166.529C134.735 165.569 134.915 164.741 135.275 164.045C135.647 163.337 136.157 162.791 136.805 162.407C137.453 162.011 138.209 161.813 139.073 161.813C139.901 161.813 140.603 161.993 141.179 162.353C141.755 162.701 142.193 163.199 142.493 163.847C142.793 164.495 142.943 165.263 142.943 166.151V166.691H136.013V165.719H141.827L141.521 165.953C141.521 165.017 141.311 164.291 140.891 163.775C140.483 163.259 139.877 163.001 139.073 163.001C138.197 163.001 137.519 163.307 137.039 163.919C136.559 164.519 136.319 165.341 136.319 166.385V166.547C136.319 167.651 136.589 168.485 137.129 169.049C137.681 169.613 138.443 169.895 139.415 169.895C139.955 169.895 140.459 169.817 140.927 169.661C141.395 169.505 141.845 169.247 142.277 168.887L142.817 170.021C142.409 170.393 141.899 170.681 141.287 170.885C140.687 171.089 140.057 171.191 139.397 171.191ZM145.084 171.029V164.117C145.084 163.769 145.072 163.415 145.048 163.055C145.024 162.695 144.988 162.335 144.94 161.975H146.524L146.704 163.919H146.488C146.764 163.235 147.19 162.713 147.766 162.353C148.342 161.993 149.014 161.813 149.782 161.813C150.85 161.813 151.654 162.107 152.194 162.695C152.734 163.271 153.004 164.171 153.004 165.395V171.029H151.366V165.485C151.366 164.657 151.204 164.063 150.88 163.703C150.556 163.331 150.052 163.145 149.368 163.145C148.552 163.145 147.904 163.391 147.424 163.883C146.956 164.375 146.722 165.041 146.722 165.881V171.029H145.084ZM158.905 171.191C157.813 171.191 156.991 170.897 156.439 170.309C155.899 169.721 155.629 168.815 155.629 167.591V161.975H157.267V167.555C157.267 168.347 157.429 168.929 157.753 169.301C158.077 169.673 158.581 169.859 159.265 169.859C160.009 169.859 160.609 169.613 161.065 169.121C161.533 168.617 161.767 167.951 161.767 167.123V161.975H163.405V171.029H161.821V169.031H162.055C161.803 169.715 161.401 170.249 160.849 170.633C160.297 171.005 159.649 171.191 158.905 171.191ZM170.282 171.191C168.842 171.191 167.702 170.777 166.862 169.949C166.034 169.121 165.62 167.981 165.62 166.529C165.62 165.569 165.8 164.741 166.16 164.045C166.532 163.337 167.042 162.791 167.69 162.407C168.338 162.011 169.094 161.813 169.958 161.813C170.786 161.813 171.488 161.993 172.064 162.353C172.64 162.701 173.078 163.199 173.378 163.847C173.678 164.495 173.828 165.263 173.828 166.151V166.691H166.898V165.719H172.712L172.406 165.953C172.406 165.017 172.196 164.291 171.776 163.775C171.368 163.259 170.762 163.001 169.958 163.001C169.082 163.001 168.404 163.307 167.924 163.919C167.444 164.519 167.204 165.341 167.204 166.385V166.547C167.204 167.651 167.474 168.485 168.014 169.049C168.566 169.613 169.328 169.895 170.3 169.895C170.84 169.895 171.344 169.817 171.812 169.661C172.28 169.505 172.73 169.247 173.162 168.887L173.702 170.021C173.294 170.393 172.784 170.681 172.172 170.885C171.572 171.089 170.942 171.191 170.282 171.191Z" fill="#929292"/>
<path d="M58.5305 225.029V219.639H56.5725V218.253H58.5305V216.251H56.5725V214.865H58.5305V209.519H60.3785L65.6145 221.839H65.1305V209.519H67.0225V214.865H69.0025V216.251H67.0225V218.253H69.0025V219.639H67.0225V225.029H65.1965L59.9605 212.709H60.4445V225.029H58.5305ZM75.8139 225.227C74.7579 225.227 73.7459 225.073 72.7779 224.765C71.8099 224.443 71.0032 223.988 70.3579 223.401L71.1499 221.663C71.8685 222.221 72.6019 222.631 73.3499 222.895C74.0979 223.159 74.8972 223.291 75.7479 223.291C76.8332 223.291 77.6545 223.064 78.2119 222.609C78.7839 222.155 79.0699 221.502 79.0699 220.651C79.0699 219.815 78.7839 219.185 78.2119 218.759C77.6545 218.319 76.8259 218.099 75.7259 218.099H73.3279V216.251H75.5499C76.4885 216.251 77.2365 216.017 77.7939 215.547C78.3512 215.063 78.6299 214.411 78.6299 213.589C78.6299 212.841 78.3732 212.269 77.8599 211.873C77.3465 211.463 76.6132 211.257 75.6599 211.257C74.0465 211.257 72.6312 211.822 71.4139 212.951L70.6439 211.213C71.2452 210.612 72.0079 210.15 72.9319 209.827C73.8559 209.49 74.8239 209.321 75.8359 209.321C77.3905 209.321 78.6152 209.681 79.5099 210.399C80.4045 211.103 80.8519 212.086 80.8519 213.347C80.8519 214.301 80.5805 215.115 80.0379 215.789C79.5099 216.464 78.7839 216.911 77.8599 217.131V216.889C78.9599 217.065 79.8032 217.505 80.3899 218.209C80.9912 218.899 81.2919 219.764 81.2919 220.805C81.2919 222.184 80.8005 223.269 79.8179 224.061C78.8499 224.839 77.5152 225.227 75.8139 225.227ZM84.9793 227.735L84.0113 226.987C84.4366 226.533 84.7226 226.115 84.8693 225.733C85.0306 225.352 85.1113 224.956 85.1113 224.545L85.5953 225.029H83.8573V222.411H86.4753V224.193C86.4753 224.853 86.3653 225.462 86.1453 226.019C85.9253 226.591 85.5366 227.163 84.9793 227.735ZM95.964 225.029V221.817H88.792V220.189L96.338 209.519H98.186V220.035H100.496V221.817H98.186V225.029H95.964ZM95.964 220.035V212.225H96.47L90.574 220.585V220.035H95.964ZM107.571 225.227C105.782 225.227 104.389 224.846 103.391 224.083C102.394 223.321 101.895 222.257 101.895 220.893C101.895 219.808 102.225 218.913 102.885 218.209C103.545 217.491 104.411 217.058 105.481 216.911V217.307C104.513 217.102 103.736 216.655 103.149 215.965C102.577 215.276 102.291 214.44 102.291 213.457C102.291 212.167 102.761 211.155 103.699 210.421C104.638 209.688 105.929 209.321 107.571 209.321C109.229 209.321 110.527 209.688 111.465 210.421C112.404 211.155 112.873 212.167 112.873 213.457C112.873 214.44 112.595 215.283 112.037 215.987C111.495 216.677 110.747 217.109 109.793 217.285V216.911C110.849 217.058 111.693 217.491 112.323 218.209C112.954 218.913 113.269 219.808 113.269 220.893C113.269 222.257 112.771 223.321 111.773 224.083C110.776 224.846 109.375 225.227 107.571 225.227ZM107.571 223.423C108.759 223.423 109.647 223.203 110.233 222.763C110.82 222.309 111.113 221.634 111.113 220.739C111.113 219.845 110.82 219.177 110.233 218.737C109.647 218.297 108.759 218.077 107.571 218.077C106.383 218.077 105.496 218.297 104.909 218.737C104.323 219.177 104.029 219.845 104.029 220.739C104.029 221.634 104.323 222.309 104.909 222.763C105.511 223.203 106.398 223.423 107.571 223.423ZM107.571 216.273C108.598 216.273 109.375 216.046 109.903 215.591C110.446 215.122 110.717 214.484 110.717 213.677C110.717 212.885 110.446 212.262 109.903 211.807C109.375 211.353 108.598 211.125 107.571 211.125C106.559 211.125 105.782 211.353 105.239 211.807C104.697 212.262 104.425 212.885 104.425 213.677C104.425 214.484 104.697 215.122 105.239 215.591C105.782 216.046 106.559 216.273 107.571 216.273ZM119.663 225.227C118.841 225.227 118.02 225.066 117.199 224.743C116.377 224.406 115.688 223.966 115.131 223.423L115.945 221.685C116.487 222.213 117.081 222.617 117.727 222.895C118.372 223.159 119.025 223.291 119.685 223.291C121.093 223.291 122.171 222.8 122.919 221.817C123.681 220.82 124.063 219.339 124.063 217.373V215.503H124.283C124.195 216.281 123.945 216.963 123.535 217.549C123.124 218.136 122.603 218.583 121.973 218.891C121.357 219.199 120.66 219.353 119.883 219.353C118.973 219.353 118.152 219.141 117.419 218.715C116.7 218.29 116.135 217.703 115.725 216.955C115.329 216.207 115.131 215.364 115.131 214.425C115.131 213.428 115.351 212.548 115.791 211.785C116.231 211.008 116.832 210.407 117.595 209.981C118.357 209.541 119.237 209.321 120.235 209.321C122.171 209.321 123.652 209.989 124.679 211.323C125.72 212.643 126.241 214.513 126.241 216.933C126.241 218.708 125.977 220.211 125.449 221.443C124.935 222.675 124.187 223.614 123.205 224.259C122.222 224.905 121.041 225.227 119.663 225.227ZM120.389 217.483C121.005 217.483 121.547 217.351 122.017 217.087C122.486 216.823 122.853 216.457 123.117 215.987C123.381 215.503 123.513 214.953 123.513 214.337C123.513 213.707 123.381 213.157 123.117 212.687C122.853 212.203 122.486 211.829 122.017 211.565C121.547 211.287 121.005 211.147 120.389 211.147C119.773 211.147 119.23 211.287 118.761 211.565C118.306 211.829 117.947 212.203 117.683 212.687C117.419 213.157 117.287 213.707 117.287 214.337C117.287 214.953 117.419 215.503 117.683 215.987C117.947 216.457 118.306 216.823 118.761 217.087C119.23 217.351 119.773 217.483 120.389 217.483Z" fill="#353535"/>
<path d="M60.7665 268.566V257.298H56.3745V255.876H66.8685V257.298H62.4585V268.566H60.7665ZM70.9054 268.728C70.0174 268.728 69.2494 268.542 68.6014 268.17C67.9534 267.786 67.4494 267.246 67.0894 266.55C66.7294 265.842 66.5494 265.002 66.5494 264.03C66.5494 263.07 66.7294 262.242 67.0894 261.546C67.4494 260.838 67.9534 260.298 68.6014 259.926C69.2494 259.542 70.0174 259.35 70.9054 259.35C71.7934 259.35 72.5614 259.542 73.2094 259.926C73.8694 260.298 74.3734 260.838 74.7214 261.546C75.0814 262.242 75.2614 263.07 75.2614 264.03C75.2614 265.002 75.0814 265.842 74.7214 266.55C74.3734 267.246 73.8694 267.786 73.2094 268.17C72.5614 268.542 71.7934 268.728 70.9054 268.728ZM70.9054 267.432C71.7214 267.432 72.3754 267.144 72.8674 266.568C73.3594 265.992 73.6054 265.146 73.6054 264.03C73.6054 262.914 73.3594 262.074 72.8674 261.51C72.3754 260.946 71.7214 260.664 70.9054 260.664C70.0774 260.664 69.4174 260.946 68.9254 261.51C68.4454 262.074 68.2054 262.914 68.2054 264.03C68.2054 265.146 68.4454 265.992 68.9254 266.568C69.4174 267.144 70.0774 267.432 70.9054 267.432ZM80.7566 268.728C79.8086 268.728 79.0886 268.47 78.5966 267.954C78.1166 267.426 77.8766 266.634 77.8766 265.578V260.772H76.1126V259.512H77.8766V257.082L79.5146 256.632V259.512H82.0706V260.772H79.5146V265.434C79.5146 266.13 79.6346 266.628 79.8746 266.928C80.1266 267.216 80.4866 267.36 80.9546 267.36C81.1946 267.36 81.3986 267.342 81.5666 267.306C81.7466 267.258 81.9086 267.204 82.0526 267.144V268.494C81.8726 268.566 81.6626 268.62 81.4226 268.656C81.1946 268.704 80.9726 268.728 80.7566 268.728ZM87.2446 268.728C86.4526 268.728 85.7566 268.542 85.1566 268.17C84.5566 267.798 84.0886 267.258 83.7526 266.55C83.4166 265.842 83.2486 265.002 83.2486 264.03C83.2486 263.058 83.4166 262.224 83.7526 261.528C84.0886 260.82 84.5566 260.28 85.1566 259.908C85.7566 259.536 86.4526 259.35 87.2446 259.35C88.0486 259.35 88.7446 259.554 89.3326 259.962C89.9326 260.358 90.3286 260.904 90.5206 261.6H90.3046L90.5026 259.512H92.0866C92.0506 259.872 92.0146 260.232 91.9786 260.592C91.9546 260.952 91.9426 261.306 91.9426 261.654V268.566H90.3046V266.496H90.5026C90.3106 267.18 89.9146 267.726 89.3146 268.134C88.7266 268.53 88.0366 268.728 87.2446 268.728ZM87.6226 267.432C88.4386 267.432 89.0926 267.144 89.5846 266.568C90.0766 265.992 90.3226 265.146 90.3226 264.03C90.3226 262.914 90.0766 262.074 89.5846 261.51C89.0926 260.946 88.4386 260.664 87.6226 260.664C86.8066 260.664 86.1466 260.946 85.6426 261.51C85.1506 262.074 84.9046 262.914 84.9046 264.03C84.9046 265.146 85.1506 265.992 85.6426 266.568C86.1346 267.144 86.7946 267.432 87.6226 267.432ZM94.687 268.566V255.318H96.325V268.566H94.687ZM107.032 268.566V257.298H102.64V255.876H113.134V257.298H108.724V268.566H107.032ZM113.337 268.566V261.726C113.337 261.366 113.325 261 113.301 260.628C113.289 260.244 113.259 259.872 113.211 259.512H114.795L114.993 261.78L114.723 261.798C114.843 261.246 115.047 260.79 115.335 260.43C115.635 260.058 115.989 259.788 116.397 259.62C116.817 259.44 117.249 259.35 117.693 259.35C117.885 259.35 118.047 259.356 118.179 259.368C118.311 259.38 118.443 259.41 118.575 259.458L118.539 260.916C118.359 260.844 118.191 260.802 118.035 260.79C117.891 260.766 117.711 260.754 117.495 260.754C116.967 260.754 116.511 260.874 116.127 261.114C115.755 261.354 115.467 261.672 115.263 262.068C115.071 262.464 114.975 262.89 114.975 263.346V268.566H113.337ZM123.385 268.728C122.593 268.728 121.897 268.542 121.297 268.17C120.697 267.798 120.229 267.258 119.893 266.55C119.557 265.842 119.389 265.002 119.389 264.03C119.389 263.058 119.557 262.224 119.893 261.528C120.229 260.82 120.697 260.28 121.297 259.908C121.897 259.536 122.593 259.35 123.385 259.35C124.189 259.35 124.885 259.554 125.473 259.962C126.073 260.358 126.469 260.904 126.661 261.6H126.445L126.643 259.512H128.227C128.191 259.872 128.155 260.232 128.119 260.592C128.095 260.952 128.083 261.306 128.083 261.654V268.566H126.445V266.496H126.643C126.451 267.18 126.055 267.726 125.455 268.134C124.867 268.53 124.177 268.728 123.385 268.728ZM123.763 267.432C124.579 267.432 125.233 267.144 125.725 266.568C126.217 265.992 126.463 265.146 126.463 264.03C126.463 262.914 126.217 262.074 125.725 261.51C125.233 260.946 124.579 260.664 123.763 260.664C122.947 260.664 122.287 260.946 121.783 261.51C121.291 262.074 121.045 262.914 121.045 264.03C121.045 265.146 121.291 265.992 121.783 266.568C122.275 267.144 122.935 267.432 123.763 267.432ZM130.828 268.566V261.654C130.828 261.306 130.816 260.952 130.792 260.592C130.768 260.232 130.732 259.872 130.684 259.512H132.268L132.448 261.456H132.232C132.508 260.772 132.934 260.25 133.51 259.89C134.086 259.53 134.758 259.35 135.526 259.35C136.594 259.35 137.398 259.644 137.938 260.232C138.478 260.808 138.748 261.708 138.748 262.932V268.566H137.11V263.022C137.11 262.194 136.948 261.6 136.624 261.24C136.3 260.868 135.796 260.682 135.112 260.682C134.296 260.682 133.648 260.928 133.168 261.42C132.7 261.912 132.466 262.578 132.466 263.418V268.566H130.828ZM144.487 268.728C143.755 268.728 143.071 268.632 142.435 268.44C141.811 268.248 141.295 267.972 140.887 267.612L141.409 266.478C141.853 266.814 142.339 267.072 142.867 267.252C143.407 267.42 143.959 267.504 144.523 267.504C145.207 267.504 145.723 267.378 146.071 267.126C146.431 266.874 146.611 266.538 146.611 266.118C146.611 265.782 146.497 265.512 146.269 265.308C146.041 265.104 145.681 264.954 145.189 264.858L143.479 264.516C142.711 264.336 142.129 264.048 141.733 263.652C141.349 263.244 141.157 262.722 141.157 262.086C141.157 261.558 141.301 261.09 141.589 260.682C141.877 260.262 142.285 259.938 142.813 259.71C143.353 259.47 143.983 259.35 144.703 259.35C145.363 259.35 145.975 259.446 146.539 259.638C147.115 259.83 147.589 260.112 147.961 260.484L147.421 261.582C147.049 261.258 146.629 261.012 146.161 260.844C145.705 260.664 145.237 260.574 144.757 260.574C144.061 260.574 143.545 260.712 143.209 260.988C142.873 261.252 142.705 261.6 142.705 262.032C142.705 262.356 142.807 262.626 143.011 262.842C143.215 263.046 143.545 263.202 144.001 263.31L145.711 263.652C146.515 263.82 147.121 264.096 147.529 264.48C147.937 264.864 148.141 265.374 148.141 266.01C148.141 266.574 147.985 267.06 147.673 267.468C147.373 267.876 146.947 268.188 146.395 268.404C145.855 268.62 145.219 268.728 144.487 268.728ZM153.831 268.728C153.039 268.728 152.343 268.542 151.743 268.17C151.143 267.798 150.675 267.258 150.339 266.55C150.003 265.842 149.835 265.002 149.835 264.03C149.835 263.058 150.003 262.224 150.339 261.528C150.675 260.82 151.143 260.28 151.743 259.908C152.343 259.536 153.039 259.35 153.831 259.35C154.635 259.35 155.331 259.554 155.919 259.962C156.519 260.358 156.915 260.904 157.107 261.6H156.891L157.089 259.512H158.673C158.637 259.872 158.601 260.232 158.565 260.592C158.541 260.952 158.529 261.306 158.529 261.654V268.566H156.891V266.496H157.089C156.897 267.18 156.501 267.726 155.901 268.134C155.313 268.53 154.623 268.728 153.831 268.728ZM154.209 267.432C155.025 267.432 155.679 267.144 156.171 266.568C156.663 265.992 156.909 265.146 156.909 264.03C156.909 262.914 156.663 262.074 156.171 261.51C155.679 260.946 155.025 260.664 154.209 260.664C153.393 260.664 152.733 260.946 152.229 261.51C151.737 262.074 151.491 262.914 151.491 264.03C151.491 265.146 151.737 265.992 152.229 266.568C152.721 267.144 153.381 267.432 154.209 267.432ZM165.161 268.728C164.261 268.728 163.481 268.542 162.821 268.17C162.161 267.786 161.645 267.24 161.273 266.532C160.913 265.812 160.733 264.96 160.733 263.976C160.733 263.004 160.919 262.176 161.291 261.492C161.663 260.796 162.179 260.268 162.839 259.908C163.499 259.536 164.273 259.35 165.161 259.35C165.749 259.35 166.319 259.452 166.871 259.656C167.423 259.848 167.873 260.13 168.221 260.502L167.663 261.654C167.315 261.318 166.931 261.072 166.511 260.916C166.091 260.748 165.677 260.664 165.269 260.664C164.381 260.664 163.685 260.952 163.181 261.528C162.677 262.092 162.425 262.914 162.425 263.994C162.425 265.086 162.677 265.926 163.181 266.514C163.685 267.102 164.381 267.396 165.269 267.396C165.665 267.396 166.073 267.318 166.493 267.162C166.913 267.006 167.303 266.76 167.663 266.424L168.221 267.558C167.861 267.942 167.399 268.236 166.835 268.44C166.283 268.632 165.725 268.728 165.161 268.728ZM173.622 268.728C172.674 268.728 171.954 268.47 171.462 267.954C170.982 267.426 170.742 266.634 170.742 265.578V260.772H168.978V259.512H170.742V257.082L172.38 256.632V259.512H174.936V260.772H172.38V265.434C172.38 266.13 172.5 266.628 172.74 266.928C172.992 267.216 173.352 267.36 173.82 267.36C174.06 267.36 174.264 267.342 174.432 267.306C174.612 267.258 174.774 267.204 174.918 267.144V268.494C174.738 268.566 174.528 268.62 174.288 268.656C174.06 268.704 173.838 268.728 173.622 268.728ZM176.654 268.566V259.512H178.292V268.566H176.654ZM176.51 257.532V255.768H178.454V257.532H176.51ZM184.847 268.728C183.959 268.728 183.191 268.542 182.543 268.17C181.895 267.786 181.391 267.246 181.031 266.55C180.671 265.842 180.491 265.002 180.491 264.03C180.491 263.07 180.671 262.242 181.031 261.546C181.391 260.838 181.895 260.298 182.543 259.926C183.191 259.542 183.959 259.35 184.847 259.35C185.735 259.35 186.503 259.542 187.151 259.926C187.811 260.298 188.315 260.838 188.663 261.546C189.023 262.242 189.203 263.07 189.203 264.03C189.203 265.002 189.023 265.842 188.663 266.55C188.315 267.246 187.811 267.786 187.151 268.17C186.503 268.542 185.735 268.728 184.847 268.728ZM184.847 267.432C185.663 267.432 186.317 267.144 186.809 266.568C187.301 265.992 187.547 265.146 187.547 264.03C187.547 262.914 187.301 262.074 186.809 261.51C186.317 260.946 185.663 260.664 184.847 260.664C184.019 260.664 183.359 260.946 182.867 261.51C182.387 262.074 182.147 262.914 182.147 264.03C182.147 265.146 182.387 265.992 182.867 266.568C183.359 267.144 184.019 267.432 184.847 267.432ZM191.402 268.566V261.654C191.402 261.306 191.39 260.952 191.366 260.592C191.342 260.232 191.306 259.872 191.258 259.512H192.842L193.022 261.456H192.806C193.082 260.772 193.508 260.25 194.084 259.89C194.66 259.53 195.332 259.35 196.1 259.35C197.168 259.35 197.972 259.644 198.512 260.232C199.052 260.808 199.322 261.708 199.322 262.932V268.566H197.684V263.022C197.684 262.194 197.522 261.6 197.198 261.24C196.874 260.868 196.37 260.682 195.686 260.682C194.87 260.682 194.222 260.928 193.742 261.42C193.274 261.912 193.04 262.578 193.04 263.418V268.566H191.402Z" fill="#929292"/>
<g clip-path="url(#clip0_1520_2280)">
<path d="M252.07 363.351C251.906 363.351 251.716 363.341 251.501 363.32C251.296 363.31 251.086 363.279 250.871 363.228V362.168C251.066 362.209 251.245 362.24 251.409 362.26C251.583 362.291 251.737 362.306 251.87 362.306C252.341 362.306 252.695 362.158 252.93 361.86C253.166 361.574 253.284 361.113 253.284 360.477V349.659H254.559V360.493C254.559 361.107 254.467 361.63 254.283 362.06C254.109 362.491 253.837 362.813 253.468 363.028C253.11 363.244 252.644 363.351 252.07 363.351ZM260.063 360.631C259.376 360.631 258.777 360.472 258.265 360.155C257.752 359.827 257.353 359.366 257.066 358.772C256.789 358.177 256.651 357.465 256.651 356.635C256.651 355.795 256.789 355.078 257.066 354.484C257.353 353.89 257.752 353.434 258.265 353.116C258.777 352.799 259.376 352.64 260.063 352.64C260.759 352.64 261.359 352.819 261.861 353.178C262.373 353.526 262.711 354.002 262.875 354.607H262.69L262.859 352.778H264.058C264.027 353.075 263.997 353.378 263.966 353.685C263.945 353.982 263.935 354.274 263.935 354.561V360.493H262.69V358.679H262.859C262.696 359.284 262.357 359.76 261.845 360.109C261.333 360.457 260.739 360.631 260.063 360.631ZM260.308 359.617C261.046 359.617 261.63 359.366 262.06 358.864C262.491 358.352 262.706 357.609 262.706 356.635C262.706 355.652 262.491 354.909 262.06 354.407C261.63 353.895 261.046 353.639 260.308 353.639C259.581 353.639 258.997 353.895 258.556 354.407C258.126 354.909 257.911 355.652 257.911 356.635C257.911 357.609 258.126 358.352 258.556 358.864C258.997 359.366 259.581 359.617 260.308 359.617ZM266.342 360.493V354.561C266.342 354.274 266.327 353.982 266.296 353.685C266.275 353.378 266.25 353.075 266.219 352.778H267.418L267.571 354.469H267.387C267.612 353.874 267.971 353.424 268.463 353.116C268.965 352.799 269.543 352.64 270.199 352.64C271.111 352.64 271.797 352.886 272.258 353.378C272.73 353.859 272.965 354.622 272.965 355.667V360.493H271.721V355.744C271.721 355.017 271.572 354.489 271.275 354.161C270.988 353.823 270.537 353.654 269.923 353.654C269.205 353.654 268.637 353.874 268.217 354.315C267.797 354.755 267.587 355.345 267.587 356.082V360.493H266.342Z" fill="black" fill-opacity="0.87"/>
<path d="M304.908 360.493V349.659H311.669V350.704H306.183V354.499H311.331V355.544H306.183V360.493H304.908ZM316.541 360.631C315.332 360.631 314.379 360.283 313.682 359.586C312.985 358.879 312.637 357.901 312.637 356.651C312.637 355.841 312.791 355.14 313.098 354.545C313.406 353.941 313.836 353.475 314.389 353.147C314.942 352.809 315.577 352.64 316.295 352.64C317.002 352.64 317.596 352.788 318.077 353.086C318.559 353.383 318.928 353.808 319.184 354.361C319.44 354.904 319.568 355.549 319.568 356.297V356.758H313.59V355.975H318.753L318.492 356.174C318.492 355.355 318.308 354.715 317.939 354.253C317.57 353.792 317.022 353.562 316.295 353.562C315.526 353.562 314.927 353.833 314.497 354.376C314.066 354.909 313.851 355.631 313.851 356.543V356.682C313.851 357.645 314.087 358.377 314.558 358.879C315.04 359.371 315.711 359.617 316.571 359.617C317.032 359.617 317.463 359.55 317.862 359.417C318.272 359.274 318.661 359.043 319.03 358.725L319.46 359.601C319.122 359.929 318.692 360.185 318.169 360.37C317.657 360.544 317.114 360.631 316.541 360.631ZM325.345 360.631C324.649 360.631 324.049 360.457 323.547 360.109C323.045 359.75 322.707 359.263 322.533 358.649H322.702V360.493H321.473V349.182H322.717V354.576H322.533C322.707 353.982 323.045 353.511 323.547 353.162C324.049 352.814 324.649 352.64 325.345 352.64C326.042 352.64 326.641 352.804 327.143 353.132C327.656 353.449 328.05 353.905 328.327 354.499C328.614 355.094 328.757 355.806 328.757 356.635C328.757 357.465 328.614 358.177 328.327 358.772C328.04 359.366 327.64 359.827 327.128 360.155C326.626 360.472 326.032 360.631 325.345 360.631ZM325.084 359.617C325.811 359.617 326.395 359.366 326.836 358.864C327.277 358.362 327.497 357.619 327.497 356.635C327.497 355.652 327.277 354.909 326.836 354.407C326.395 353.895 325.811 353.639 325.084 353.639C324.357 353.639 323.773 353.895 323.332 354.407C322.902 354.909 322.687 355.652 322.687 356.635C322.687 357.609 322.902 358.352 323.332 358.864C323.773 359.366 324.357 359.617 325.084 359.617Z" fill="black" fill-opacity="0.87"/>
<path d="M360.193 360.493V349.659H361.299L365.648 359.478H365.203L369.552 349.659H370.658V360.493H369.49V351.303H369.951L365.848 360.493H365.003L360.884 351.303H361.346V360.493H360.193ZM376.166 360.631C375.48 360.631 374.88 360.472 374.368 360.155C373.856 359.827 373.456 359.366 373.169 358.772C372.893 358.177 372.754 357.465 372.754 356.635C372.754 355.795 372.893 355.078 373.169 354.484C373.456 353.89 373.856 353.434 374.368 353.116C374.88 352.799 375.48 352.64 376.166 352.64C376.863 352.64 377.462 352.819 377.964 353.178C378.476 353.526 378.814 354.002 378.978 354.607H378.794L378.963 352.778H380.162C380.131 353.075 380.1 353.378 380.069 353.685C380.049 353.982 380.039 354.274 380.039 354.561V360.493H378.794V358.679H378.963C378.799 359.284 378.461 359.76 377.949 360.109C377.436 360.457 376.842 360.631 376.166 360.631ZM376.412 359.617C377.15 359.617 377.734 359.366 378.164 358.864C378.594 358.352 378.809 357.609 378.809 356.635C378.809 355.652 378.594 354.909 378.164 354.407C377.734 353.895 377.15 353.639 376.412 353.639C375.685 353.639 375.101 353.895 374.66 354.407C374.23 354.909 374.015 355.652 374.015 356.635C374.015 357.609 374.23 358.352 374.66 358.864C375.101 359.366 375.685 359.617 376.412 359.617ZM382.415 360.493V354.638C382.415 354.33 382.404 354.018 382.384 353.7C382.374 353.383 382.353 353.075 382.322 352.778H383.521L383.675 354.653L383.46 354.668C383.562 354.207 383.741 353.828 383.998 353.531C384.254 353.234 384.556 353.014 384.904 352.87C385.253 352.717 385.616 352.64 385.995 352.64C386.149 352.64 386.282 352.645 386.395 352.655C386.518 352.665 386.631 352.691 386.733 352.732L386.718 353.839C386.564 353.787 386.421 353.757 386.287 353.746C386.164 353.726 386.021 353.716 385.857 353.716C385.406 353.716 385.012 353.823 384.674 354.038C384.346 354.253 384.095 354.53 383.921 354.868C383.757 355.206 383.675 355.565 383.675 355.944V360.493H382.415Z" fill="black" fill-opacity="0.87"/>
<path d="M417.334 360.493L422.113 349.659H423.22L428.076 360.493H426.754L425.402 357.404L425.97 357.727H419.347L419.962 357.404L418.64 360.493H417.334ZM422.651 351.118L420.161 356.958L419.793 356.682H425.509L425.233 356.958L422.682 351.118H422.651ZM429.572 363.812V354.561C429.572 354.274 429.556 353.982 429.526 353.685C429.505 353.378 429.48 353.075 429.449 352.778H430.647L430.817 354.607H430.632C430.796 354.002 431.129 353.526 431.631 353.178C432.133 352.819 432.732 352.64 433.429 352.64C434.126 352.64 434.725 352.799 435.227 353.116C435.739 353.434 436.139 353.89 436.426 354.484C436.713 355.078 436.856 355.795 436.856 356.635C436.856 357.465 436.713 358.177 436.426 358.772C436.149 359.366 435.755 359.827 435.242 360.155C434.73 360.472 434.126 360.631 433.429 360.631C432.743 360.631 432.148 360.457 431.646 360.109C431.144 359.76 430.811 359.284 430.647 358.679H430.817V363.812H429.572ZM433.183 359.617C433.921 359.617 434.505 359.366 434.935 358.864C435.376 358.352 435.596 357.609 435.596 356.635C435.596 355.652 435.376 354.909 434.935 354.407C434.505 353.895 433.921 353.639 433.183 353.639C432.456 353.639 431.872 353.895 431.431 354.407C431.001 354.909 430.786 355.652 430.786 356.635C430.786 357.609 431.001 358.352 431.431 358.864C431.872 359.366 432.456 359.617 433.183 359.617ZM438.756 360.493V354.638C438.756 354.33 438.745 354.018 438.725 353.7C438.715 353.383 438.694 353.075 438.663 352.778H439.862L440.016 354.653L439.801 354.668C439.903 354.207 440.082 353.828 440.338 353.531C440.595 353.234 440.897 353.014 441.245 352.87C441.593 352.717 441.957 352.64 442.336 352.64C442.49 352.64 442.623 352.645 442.736 352.655C442.859 352.665 442.971 352.691 443.074 352.732L443.059 353.839C442.905 353.787 442.761 353.757 442.628 353.746C442.505 353.726 442.362 353.716 442.198 353.716C441.747 353.716 441.353 353.823 441.015 354.038C440.687 354.253 440.436 354.53 440.262 354.868C440.098 355.206 440.016 355.565 440.016 355.944V360.493H438.756Z" fill="black" fill-opacity="0.87"/>
<path d="M474.369 360.493V349.659H475.475L479.824 359.478H479.378L483.727 349.659H484.834V360.493H483.666V351.303H484.127L480.024 360.493H479.179L475.06 351.303H475.521V360.493H474.369ZM490.342 360.631C489.655 360.631 489.056 360.472 488.544 360.155C488.031 359.827 487.632 359.366 487.345 358.772C487.068 358.177 486.93 357.465 486.93 356.635C486.93 355.795 487.068 355.078 487.345 354.484C487.632 353.89 488.031 353.434 488.544 353.116C489.056 352.799 489.655 352.64 490.342 352.64C491.038 352.64 491.638 352.819 492.14 353.178C492.652 353.526 492.99 354.002 493.154 354.607H492.969L493.139 352.778H494.337C494.306 353.075 494.276 353.378 494.245 353.685C494.225 353.982 494.214 354.274 494.214 354.561V360.493H492.969V358.679H493.139C492.975 359.284 492.637 359.76 492.124 360.109C491.612 360.457 491.018 360.631 490.342 360.631ZM490.588 359.617C491.325 359.617 491.909 359.366 492.339 358.864C492.77 358.352 492.985 357.609 492.985 356.635C492.985 355.652 492.77 354.909 492.339 354.407C491.909 353.895 491.325 353.639 490.588 353.639C489.86 353.639 489.276 353.895 488.836 354.407C488.405 354.909 488.19 355.652 488.19 356.635C488.19 357.609 488.405 358.352 488.836 358.864C489.276 359.366 489.86 359.617 490.588 359.617ZM496.239 363.981L495.947 362.952C496.428 362.839 496.828 362.706 497.145 362.552C497.473 362.409 497.745 362.214 497.96 361.968C498.175 361.722 498.359 361.415 498.513 361.046L498.913 360.139L498.882 360.662L495.516 352.778H496.869L499.65 359.555H499.251L502.001 352.778H503.308L499.742 361.138C499.538 361.63 499.312 362.04 499.066 362.368C498.82 362.706 498.554 362.977 498.267 363.182C497.991 363.397 497.683 363.566 497.345 363.689C497.007 363.812 496.638 363.909 496.239 363.981Z" fill="black" fill-opacity="0.87"/>
<path d="M534.12 363.351C533.956 363.351 533.766 363.341 533.551 363.32C533.346 363.31 533.136 363.279 532.921 363.228V362.168C533.115 362.209 533.295 362.24 533.459 362.26C533.633 362.291 533.787 362.306 533.92 362.306C534.391 362.306 534.744 362.158 534.98 361.86C535.216 361.574 535.334 361.113 535.334 360.477V349.659H536.609V360.493C536.609 361.107 536.517 361.63 536.332 362.06C536.158 362.491 535.887 362.813 535.518 363.028C535.159 363.244 534.693 363.351 534.12 363.351ZM541.897 360.631C540.985 360.631 540.294 360.38 539.822 359.878C539.361 359.376 539.131 358.608 539.131 357.573V352.778H540.376V357.542C540.376 358.249 540.519 358.772 540.806 359.11C541.093 359.437 541.539 359.601 542.143 359.601C542.819 359.601 543.362 359.381 543.772 358.941C544.182 358.5 544.387 357.911 544.387 357.173V352.778H545.631V360.493H544.417V358.756H544.617C544.402 359.35 544.054 359.811 543.572 360.139C543.101 360.467 542.543 360.631 541.897 360.631ZM548.046 360.493V354.561C548.046 354.274 548.031 353.982 548 353.685C547.98 353.378 547.954 353.075 547.924 352.778H549.122L549.276 354.469H549.091C549.317 353.874 549.675 353.424 550.167 353.116C550.669 352.799 551.248 352.64 551.904 352.64C552.816 352.64 553.502 352.886 553.963 353.378C554.434 353.859 554.67 354.622 554.67 355.667V360.493H553.425V355.744C553.425 355.017 553.277 354.489 552.979 354.161C552.693 353.823 552.242 353.654 551.627 353.654C550.91 353.654 550.341 353.874 549.921 354.315C549.501 354.755 549.291 355.345 549.291 356.082V360.493H548.046Z" fill="black" fill-opacity="0.87"/>
<path d="M586.803 363.351C586.639 363.351 586.45 363.341 586.234 363.32C586.03 363.31 585.82 363.279 585.604 363.228V362.168C585.799 362.209 585.978 362.24 586.142 362.26C586.316 362.291 586.47 362.306 586.603 362.306C587.075 362.306 587.428 362.158 587.664 361.86C587.899 361.574 588.017 361.113 588.017 360.477V349.659H589.293V360.493C589.293 361.107 589.2 361.63 589.016 362.06C588.842 362.491 588.57 362.813 588.202 363.028C587.843 363.244 587.377 363.351 586.803 363.351ZM594.581 360.631C593.669 360.631 592.977 360.38 592.506 359.878C592.045 359.376 591.815 358.608 591.815 357.573V352.778H593.059V357.542C593.059 358.249 593.203 358.772 593.49 359.11C593.776 359.437 594.222 359.601 594.827 359.601C595.503 359.601 596.046 359.381 596.456 358.941C596.865 358.5 597.07 357.911 597.07 357.173V352.778H598.315V360.493H597.101V358.756H597.301C597.086 359.35 596.737 359.811 596.256 360.139C595.784 360.467 595.226 360.631 594.581 360.631ZM600.73 360.493V349.182H601.975V360.493H600.73Z" fill="black" fill-opacity="0.87"/>
<path d="M224.363 114.669V112.318H219.2V111.396L224.563 103.835H225.608V111.288H227.268V112.318H225.608V114.669H224.363ZM224.363 111.288V105.341H224.701L220.245 111.611V111.288H224.363ZM232.256 114.807C231.027 114.807 230.084 114.331 229.428 113.378C228.773 112.425 228.445 111.047 228.445 109.244C228.445 107.431 228.773 106.053 229.428 105.11C230.084 104.168 231.027 103.697 232.256 103.697C233.496 103.697 234.438 104.168 235.084 105.11C235.739 106.053 236.067 107.426 236.067 109.229C236.067 111.042 235.739 112.425 235.084 113.378C234.428 114.331 233.485 114.807 232.256 114.807ZM232.256 113.701C233.117 113.701 233.757 113.337 234.177 112.61C234.597 111.882 234.807 110.755 234.807 109.229C234.807 107.692 234.597 106.57 234.177 105.863C233.757 105.146 233.117 104.788 232.256 104.788C231.406 104.788 230.765 105.146 230.335 105.863C229.915 106.581 229.705 107.702 229.705 109.229C229.705 110.755 229.915 111.882 230.335 112.61C230.765 113.337 231.406 113.701 232.256 113.701Z" fill="black" fill-opacity="0.6"/>
<rect width="651.588" height="1.53676" transform="translate(250.132 108.426)" fill="black" fill-opacity="0.12"/>
<path d="M222.98 185.641C222.253 185.641 221.556 185.528 220.89 185.303C220.224 185.077 219.666 184.755 219.215 184.334L219.691 183.351C220.193 183.761 220.711 184.058 221.243 184.242C221.776 184.427 222.35 184.519 222.965 184.519C223.774 184.519 224.389 184.35 224.809 184.012C225.229 183.663 225.439 183.156 225.439 182.49C225.439 181.855 225.224 181.374 224.793 181.046C224.363 180.708 223.733 180.539 222.903 180.539H221.274V179.478H222.796C223.513 179.478 224.081 179.294 224.501 178.925C224.921 178.556 225.131 178.054 225.131 177.419C225.131 176.845 224.937 176.41 224.547 176.113C224.168 175.805 223.62 175.652 222.903 175.652C221.735 175.652 220.726 176.067 219.876 176.897L219.399 175.898C219.819 175.467 220.347 175.134 220.982 174.899C221.617 174.653 222.283 174.53 222.98 174.53C224.045 174.53 224.88 174.776 225.485 175.268C226.089 175.759 226.392 176.441 226.392 177.311C226.392 177.977 226.202 178.551 225.823 179.033C225.444 179.504 224.932 179.827 224.286 180.001V179.832C225.055 179.955 225.649 180.262 226.069 180.754C226.489 181.235 226.699 181.845 226.699 182.583C226.699 183.525 226.366 184.273 225.7 184.826C225.044 185.369 224.138 185.641 222.98 185.641ZM232.256 185.641C231.027 185.641 230.084 185.164 229.428 184.212C228.773 183.259 228.445 181.881 228.445 180.078C228.445 178.264 228.773 176.886 229.428 175.944C230.084 175.001 231.027 174.53 232.256 174.53C233.496 174.53 234.438 175.001 235.084 175.944C235.739 176.886 236.067 178.259 236.067 180.062C236.067 181.876 235.739 183.259 235.084 184.212C234.428 185.164 233.485 185.641 232.256 185.641ZM232.256 184.534C233.117 184.534 233.757 184.171 234.177 183.443C234.597 182.716 234.807 181.589 234.807 180.062C234.807 178.526 234.597 177.404 234.177 176.697C233.757 175.98 233.117 175.621 232.256 175.621C231.406 175.621 230.765 175.98 230.335 176.697C229.915 177.414 229.705 178.536 229.705 180.062C229.705 181.589 229.915 182.716 230.335 183.443C230.765 184.171 231.406 184.534 232.256 184.534Z" fill="black" fill-opacity="0.6"/>
<rect width="651.588" height="1.53676" transform="translate(250.132 179.26)" fill="black" fill-opacity="0.12"/>
<path d="M219.753 256.336V255.383L223.595 251.372C224.097 250.85 224.471 250.353 224.716 249.881C224.973 249.4 225.101 248.903 225.101 248.391C225.101 247.766 224.906 247.294 224.517 246.977C224.127 246.649 223.564 246.485 222.826 246.485C222.253 246.485 221.72 246.588 221.228 246.792C220.747 246.987 220.28 247.3 219.83 247.73L219.369 246.731C219.778 246.321 220.301 245.993 220.936 245.747C221.571 245.491 222.242 245.363 222.949 245.363C224.045 245.363 224.891 245.619 225.485 246.132C226.079 246.634 226.376 247.351 226.376 248.283C226.376 248.97 226.207 249.625 225.869 250.25C225.541 250.865 225.06 251.5 224.425 252.156L221.028 255.598V255.245H226.837V256.336H219.753ZM232.256 256.474C231.027 256.474 230.084 255.998 229.428 255.045C228.773 254.092 228.445 252.714 228.445 250.911C228.445 249.098 228.773 247.72 229.428 246.777C230.084 245.835 231.027 245.363 232.256 245.363C233.496 245.363 234.438 245.835 235.084 246.777C235.739 247.72 236.067 249.092 236.067 250.896C236.067 252.709 235.739 254.092 235.084 255.045C234.428 255.998 233.485 256.474 232.256 256.474ZM232.256 255.368C233.117 255.368 233.757 255.004 234.177 254.276C234.597 253.549 234.807 252.422 234.807 250.896C234.807 249.359 234.597 248.237 234.177 247.53C233.757 246.813 233.117 246.454 232.256 246.454C231.406 246.454 230.765 246.813 230.335 247.53C229.915 248.247 229.705 249.369 229.705 250.896C229.705 252.422 229.915 253.549 230.335 254.276C230.765 255.004 231.406 255.368 232.256 255.368Z" fill="black" fill-opacity="0.6"/>
<rect width="651.588" height="1.53676" transform="translate(250.132 250.093)" fill="black" fill-opacity="0.12"/>
<path d="M232.477 327.307C231.247 327.307 230.305 326.831 229.649 325.878C228.993 324.925 228.665 323.547 228.665 321.744C228.665 319.931 228.993 318.553 229.649 317.61C230.305 316.668 231.247 316.197 232.477 316.197C233.716 316.197 234.659 316.668 235.304 317.61C235.96 318.553 236.288 319.926 236.288 321.729C236.288 323.542 235.96 324.925 235.304 325.878C234.649 326.831 233.706 327.307 232.477 327.307ZM232.477 326.201C233.337 326.201 233.977 325.837 234.398 325.11C234.818 324.382 235.028 323.255 235.028 321.729C235.028 320.192 234.818 319.07 234.398 318.363C233.977 317.646 233.337 317.288 232.477 317.288C231.626 317.288 230.986 317.646 230.556 318.363C230.136 319.081 229.926 320.202 229.926 321.729C229.926 323.255 230.136 324.382 230.556 325.11C230.986 325.837 231.626 326.201 232.477 326.201Z" fill="black" fill-opacity="0.6"/>
<rect width="651.588" height="1.53676" transform="translate(250.132 320.926)" fill="black" fill-opacity="0.12"/>
<g clip-path="url(#clip1_1520_2280)">
<rect width="15.3676" height="50.7132" transform="translate(247.059 269.787)" fill="#056839"/>
<rect width="15.3676" height="79.9118" transform="translate(262.426 240.588)" fill="#D6DF24"/>
<rect width="15.3676" height="75.3015" transform="translate(302.424 245.199)" fill="#056839"/>
<rect width="15.3676" height="90.6691" transform="translate(317.791 229.831)" fill="#D6DF24"/>
<rect width="15.3676" height="46.1029" transform="translate(357.789 274.397)" fill="#056839"/>
<rect width="15.3676" height="69.1544" transform="translate(373.156 251.346)" fill="#D6DF24"/>
<rect width="15.3676" height="96.8162" transform="translate(413.154 223.684)" fill="#056839"/>
<rect width="15.3676" height="144.456" transform="translate(428.521 176.044)" fill="#D6DF24"/>
<rect width="15.3676" height="170.581" transform="translate(468.519 149.919)" fill="#056839"/>
<rect width="15.3676" height="199.779" transform="translate(483.886 120.721)" fill="#D6DF24"/>
<rect width="15.3676" height="138.309" transform="translate(523.884 182.191)" fill="#056839"/>
<rect width="15.3676" height="162.897" transform="translate(539.251 157.603)" fill="#D6DF24"/>
<rect width="15.3676" height="96.8162" transform="translate(579.249 223.684)" fill="#056839"/>
<rect width="15.3676" height="144.456" transform="translate(594.616 176.044)" fill="#D6DF24"/>
</g>
</g>
</g>
<defs>
<filter id="filter0_d_1520_2280" x="0.852942" y="0.852942" width="943.897" height="430.294" filterUnits="userSpaceOnUse" color-interpolation-filters="sRGB">
<feFlood flood-opacity="0" result="BackgroundImageFix"/>
<feColorMatrix in="SourceAlpha" type="matrix" values="0 0 0 0 0 0 0 0 0 0 0 0 0 0 0 0 0 0 127 0" result="hardAlpha"/>
<feOffset/>
<feGaussianBlur stdDeviation="3.07353"/>
<feColorMatrix type="matrix" values="0 0 0 0 0 0 0 0 0 0 0 0 0 0 0 0 0 0 0.15 0"/>
<feBlend mode="normal" in2="BackgroundImageFix" result="effect1_dropShadow_1520_2280"/>
<feBlend mode="normal" in="SourceGraphic" in2="effect1_dropShadow_1520_2280" result="shape"/>
</filter>
<clipPath id="clip0_1520_2280">
<rect width="691.544" height="316.574" fill="white" transform="translate(210.176 48.4926)"/>
</clipPath>
<clipPath id="clip1_1520_2280">
<rect width="639.75" height="272.434" fill="white" transform="translate(247.059 48.4926)"/>
</clipPath>
</defs>
</svg>
